<svg xmlns="http://www.w3.org/2000/svg" viewBox="0 0 150.01 150.21"><defs><style>.cls-1{fill:#f19403;}.cls-2{fill:#8fa404;}.cls-3{fill:#016e92;}.cls-4{fill:#34b7c9;}.cls-5{fill:#59c3d2;}</style></defs><g id="Ebene_2" data-name="Ebene 2"><g id="Ebene_1-2" data-name="Ebene 1"><path class="cls-1" d="M0,64V0H62c3.89,2.35,6.65,5.86,9.76,9.07,0,17.13,0,34.11,0,51.09a4,4,0,0,1-1.38,3.38L63.2,71.67H8.79C5.4,69.35,3.5,65.76,0,64Z"/><path class="cls-2" d="M78,0h72V45l-9.18,10.15V71.54H78Z"/><path class="cls-3" d="M96,150H78q0-33.48,0-67c0-1.33.09-2.65.16-4,0-.14.15-.28.25-.39a6.81,6.81,0,0,1,.54-.49c7.65,0,15.47,0,23.3,0a10.87,10.87,0,0,1,4.77,1.2c5.24,2.4,10.49,4.79,16,7.3l7.8-7.64H150v71H122c-5.23-4-11.41-6-17.72-8.55Z"/><path class="cls-4" d="M72,150H70c-1.42-1.78-3.4-.94-5.11-.95Q32.46,149,0,149V78l53.42.19V95.67c3.41,1.25,6.55-.22,9.85,1.37v17.44c3,.85,5.8-.27,8.73,1.07Z"/><path class="cls-5" d="M0,149q32.45,0,64.89.05c1.71,0,3.69-.83,5.11.95Q36,150,2,150C1.38,150-.14,151,0,149Z"/></g></g></svg>