<svg xmlns="http://www.w3.org/2000/svg" id="Ebene_1" data-name="Ebene 1" viewBox="0 140 120 120"><defs><style>.cls-1{fill:#8073e5;}.cls-2{fill:#bdd1cf;}.cls-3{fill:#ff3946;stroke:#ff3946;stroke-linecap:round;stroke-linejoin:round;stroke-width:2px;}</style></defs><title>icon_kamera</title><g id="Layer_2" data-name="Layer 2"><g id="Layer_1-2" data-name="Layer 1-2"><circle class="cls-1" cx="60" cy="200" r="60"/></g></g><rect class="cls-2" x="32.92" y="171.93" width="4.73" height="8.5"/><rect class="cls-3" x="45.42" y="171.93" width="4.73" height="8.5"/><rect class="cls-2" x="57.92" y="171.93" width="4.73" height="8.5"/><rect class="cls-3" x="70.42" y="171.93" width="4.73" height="8.5"/><rect class="cls-2" x="82.91" y="171.93" width="4.73" height="8.5"/><rect class="cls-3" x="32.92" y="184.18" width="4.73" height="8.5"/><rect class="cls-3" x="45.42" y="184.18" width="4.73" height="8.5"/><rect class="cls-3" x="57.92" y="184.18" width="4.73" height="8.5"/><rect class="cls-3" x="70.42" y="184.18" width="4.73" height="8.5"/><rect class="cls-3" x="82.91" y="184.18" width="4.73" height="8.5"/><rect class="cls-3" x="32.92" y="196.43" width="4.73" height="8.5"/><rect class="cls-3" x="45.42" y="196.43" width="4.73" height="8.5"/><rect class="cls-3" x="57.92" y="196.43" width="4.73" height="8.5"/><rect class="cls-3" x="70.42" y="196.43" width="4.73" height="8.5"/><rect class="cls-3" x="82.91" y="196.43" width="4.73" height="8.5"/><rect class="cls-2" x="32.92" y="208.68" width="4.73" height="8.5"/><rect class="cls-3" x="45.42" y="208.68" width="4.73" height="8.5"/><rect class="cls-3" x="57.92" y="208.68" width="4.73" height="8.5"/><rect class="cls-3" x="70.42" y="208.68" width="4.73" height="8.5"/><rect class="cls-2" x="82.91" y="208.68" width="4.73" height="8.5"/><rect class="cls-2" x="32.92" y="220.93" width="4.73" height="8.5"/><rect class="cls-2" x="45.42" y="220.93" width="4.73" height="8.5"/><rect class="cls-3" x="57.92" y="220.93" width="4.73" height="8.5"/><rect class="cls-2" x="70.42" y="220.93" width="4.73" height="8.5"/><rect class="cls-2" x="82.91" y="220.93" width="4.73" height="8.5"/></svg>