<?xml version="1.0" encoding="UTF-8"?><svg id="Ebene_2" xmlns="http://www.w3.org/2000/svg" viewBox="0 0 934.47 890.76"><defs><style>.cls-1{fill:#071512;}.cls-1,.cls-2,.cls-3{stroke-width:0px;}.cls-2{fill:#59bebf;}.cls-3{fill:#fff;}</style></defs><g id="Ebene_1-2"><path class="cls-2" d="M62.84,306.7l70.58-35.95c33.97-17.48,57.39-50.79,62-89.05l9.89-80.14c10.55-85.42,105.54-129.61,176.12-82.12l66.62,44.52c31.66,21.44,71.9,25.39,106.86,10.55l72.89-31c77.83-32.98,163.25,28.69,158.31,114.77l-4.62,80.47c-2.31,38.59,14.51,75.86,44.85,99.6l62.99,49.14c67.28,52.44,57.72,158.31-17.81,196.89l-70.58,35.62c-33.97,17.48-57.39,50.79-62,89.05l-9.89,80.14c-10.55,85.42-105.54,129.61-176.12,82.12,0,0-32.38-28.43-71.9-47.13-39.52-18.7-83.42-16.45-107.21-6.43l-66.59,29.81c-77.83,32.98-163.25-28.69-158.31-114.77l4.62-80.47c2.31-38.59-14.51-75.86-44.85-99.6l-62.99-49.14c-67.94-52.44-58.38-158.31,17.15-196.89"/><ellipse class="cls-1" cx="547.9" cy="423.01" rx="40.9" ry="27.04" transform="translate(66.24 920.13) rotate(-83.58)"/><circle class="cls-3" cx="546.66" cy="411.57" r="9.89"/><ellipse class="cls-1" cx="389.2" cy="407.59" rx="40.9" ry="27.04" transform="translate(-59.38 748.73) rotate(-83.58)"/><circle class="cls-3" cx="387.7" cy="396.4" r="9.89"/><path class="cls-1" d="M601.41,572.19c-3.96,35.62-78.16,88.72-160.94,79.15-82.78-9.56-143.14-77.5-139.18-113.12,3.96-35.62,70.91-14.18,153.69-4.95,82.78,9.23,150.39,3.3,146.43,38.92Z"/></g></svg>