<svg id="svg2" xmlns="http://www.w3.org/2000/svg" viewBox="0 0 32 25.03"><defs><style>.cls-1{fill:#aa278f;}.cls-2{fill:#fff;}</style></defs><path id="path10" class="cls-1" d="M32,12.51h0a3,3,0,0,0,0-.31h0a1.17,1.17,0,0,0-.24-.65,3.55,3.55,0,0,0-.86-.69,4.18,4.18,0,0,1-1-.83,3,3,0,0,1-.57-1.32,11.14,11.14,0,0,1-.11-1.47v-2a8.54,8.54,0,0,0-.07-1,1.15,1.15,0,0,1,0-.19,4.34,4.34,0,0,0-.51-2.07A3.45,3.45,0,0,0,27.2.49,4.29,4.29,0,0,0,25.12,0H6.27a4.45,4.45,0,0,0-1,.2,4.4,4.4,0,0,0-.52.3,3.52,3.52,0,0,0-.8.59A3.93,3.93,0,0,0,2.88,3.82,8.57,8.57,0,0,0,2.79,5.1V7.66A7.1,7.1,0,0,1,2.61,9a2.4,2.4,0,0,1-.54,1l-.2.19a9,9,0,0,1-1.13.83A1.53,1.53,0,0,0,0,12.19H0v0a1.27,1.27,0,0,0,0,.28v0H0a2.66,2.66,0,0,0,0,.3H0a1.17,1.17,0,0,0,.24.66,3.8,3.8,0,0,0,.86.69,4.18,4.18,0,0,1,1,.83,3,3,0,0,1,.57,1.31,11.53,11.53,0,0,1,.11,1.48v2a8.54,8.54,0,0,0,.07,1.05,1.09,1.09,0,0,1,0,.18,4.35,4.35,0,0,0,.51,2.08,3.42,3.42,0,0,0,1.42,1.4,4.29,4.29,0,0,0,2.08.5H25.73a2.32,2.32,0,0,0,1-.2,3.72,3.72,0,0,0,.52-.3,3.52,3.52,0,0,0,.8-.59,4,4,0,0,0,1.11-2.73,8.71,8.71,0,0,0,.09-1.29V17.37A7.21,7.21,0,0,1,29.39,16a2.36,2.36,0,0,1,.54-1l.2-.2a9.11,9.11,0,0,1,1.13-.82A1.53,1.53,0,0,0,32,12.83h0v0a2.64,2.64,0,0,0,0-.29Z"/><g id="iconFg"><path id="path13" class="cls-2" d="M27.37,13l.81-.52L27.36,12a4.56,4.56,0,0,1-.92-.74,3.07,3.07,0,0,1-.56-.9A5.59,5.59,0,0,1,25.55,9a18.22,18.22,0,0,1-.1-2c0-.78,0-1.36-.05-1.78a2.93,2.93,0,0,0-.26-1.12,1.38,1.38,0,0,0-.71-.66,4,4,0,0,0-.93-.2.47.47,0,0,1-.35-.21A1,1,0,0,1,23,2.46c0-.41.09-.81,1.12-.81A3.52,3.52,0,0,1,25.77,2a2.66,2.66,0,0,1,1.08,1.05,3.16,3.16,0,0,1,.42,1.59,34.75,34.75,0,0,0,.18,4.49,3.31,3.31,0,0,0,.7,1.47,4.56,4.56,0,0,0,1,.84,2.51,2.51,0,0,1,.62.49.89.89,0,0,1,.12.56.82.82,0,0,1-.39.79,7.08,7.08,0,0,0-1.33,1,2.69,2.69,0,0,0-.68,1.24,8.91,8.91,0,0,0-.2,1.87q0,1.17-.06,2.91a3.06,3.06,0,0,1-.88,2.22,3.12,3.12,0,0,1-2.29.82,1.34,1.34,0,0,1-.89-.23.7.7,0,0,1-.23-.6,1.21,1.21,0,0,1,.09-.48.85.85,0,0,1,.19-.27.46.46,0,0,1,.24-.09,4.19,4.19,0,0,0,.95-.22,1.39,1.39,0,0,0,.73-.72,3.18,3.18,0,0,0,.23-1.09c0-.4,0-1,0-1.72a17.65,17.65,0,0,1,.18-2.48,3.47,3.47,0,0,1,.54-1.36A3.87,3.87,0,0,1,27.37,13ZM10.75,19.56H21.21A.76.76,0,0,0,22,18.8V15.1c-.14-.45-.52-.5-.88-.15a1.81,1.81,0,0,1-1.22.44,2,2,0,0,1-1.95-1.72h0v-.52h0a2,2,0,0,1,1.95-1.72,1.79,1.79,0,0,1,1.22.45c.35.33.74.25.88-.15V8.3a.76.76,0,0,0-.56-.74c-.07,0-3.26,0-3.26,0-.79.06-1.07-.47-.63-.93A1.79,1.79,0,0,0,18,5.41a2.05,2.05,0,0,0-1.72-1.95h-.53a2,2,0,0,0-1.71,2,1.81,1.81,0,0,0,.44,1.22c.44.46.26,1-.62.93,0,0-3.2,0-3.26,0A.76.76,0,0,0,10,8.3V18.8A.75.75,0,0,0,10.75,19.56Zm-6.2-3.7a35.25,35.25,0,0,1,.18,4.5A3.19,3.19,0,0,0,5.15,22,2.66,2.66,0,0,0,6.23,23a3.52,3.52,0,0,0,1.67.37c1,0,1.12-.4,1.12-.81a1,1,0,0,0-.17-.62.52.52,0,0,0-.35-.22,3.53,3.53,0,0,1-.93-.2,1.31,1.31,0,0,1-.71-.66,2.87,2.87,0,0,1-.26-1.11c0-.42,0-1,0-1.78a15.94,15.94,0,0,0-.11-2,5,5,0,0,0-.32-1.33,3.07,3.07,0,0,0-.56-.9A4.38,4.38,0,0,0,4.63,13l-.82-.52L4.63,12a4.14,4.14,0,0,0,1.2-1.07,3.37,3.37,0,0,0,.53-1.36,16.12,16.12,0,0,0,.19-2.48c0-.76,0-1.33,0-1.73a3.23,3.23,0,0,1,.23-1.09,1.4,1.4,0,0,1,.73-.71,3.71,3.71,0,0,1,1-.22.43.43,0,0,0,.24-.1A.7.7,0,0,0,8.93,3,1.24,1.24,0,0,0,9,2.49a.72.72,0,0,0-.23-.61,1.4,1.4,0,0,0-.89-.23,3.08,3.08,0,0,0-2.29.83A3.06,3.06,0,0,0,4.73,4.7c0,1.16,0,2.13-.06,2.9a8.93,8.93,0,0,1-.2,1.88,2.65,2.65,0,0,1-.68,1.24,7.08,7.08,0,0,1-1.33,1,.82.82,0,0,0-.39.79c0,.37.08.51.12.55a2.47,2.47,0,0,0,.62.5,4.56,4.56,0,0,1,1,.84A3.22,3.22,0,0,1,4.55,15.86Z"/></g></svg>