<svg xmlns="http://www.w3.org/2000/svg" id="Ebene_1" data-name="Ebene 1" viewBox="0.09 139.25 119.88 121.51"><defs><style>.cls-1{fill:#ff4600;}.cls-2,.cls-3{fill:none;stroke:#fff;stroke-width:2.51px;}.cls-2{stroke-linejoin:round;}.cls-3{stroke-miterlimit:10;}</style></defs><title>icon_kamera</title><path class="cls-1" d="M108.05,179.85a23.05,23.05,0,0,0-3.11-19.76,22.41,22.41,0,0,0-25-8.74,22.42,22.42,0,0,0-39.81,0,22.24,22.24,0,0,0-19.51,3.14A23,23,0,0,0,12,179.85a23,23,0,0,0,0,40.3,23.05,23.05,0,0,0,3.11,19.76,22.41,22.41,0,0,0,25,8.74,22.42,22.42,0,0,0,39.81,0,22.24,22.24,0,0,0,19.51-3.14,23,23,0,0,0,8.63-25.35,23,23,0,0,0,0-40.3Z"/><g id="motor"><rect class="cls-2" x="44.11" y="182.88" width="30.01" height="37.81" rx="1.98"/><polyline class="cls-3" points="51.05 182.88 51.05 174.95 67.22 174.95 67.2 182.88"/><line class="cls-2" x1="44.11" y1="207.66" x2="74.13" y2="207.66"/><line class="cls-2" x1="59.12" y1="175.08" x2="59.12" y2="165.64"/><polyline class="cls-2" points="67.64 220.69 67.64 226.22 50.68 226.22 50.68 220.69"/><line class="cls-2" x1="59.12" y1="226.22" x2="59.12" y2="229.47"/><line class="cls-2" x1="52.66" y1="207.93" x2="52.66" y2="214.31"/><line class="cls-2" x1="65.66" y1="207.93" x2="65.66" y2="214.31"/></g></svg>