<svg xmlns="http://www.w3.org/2000/svg" id="Ebene_1" data-name="Ebene 1" viewBox="9.96 149.96 100.08 100.08"><defs><style>.cls-1{fill:#8073e5;}.cls-2,.cls-3{fill:none;stroke-miterlimit:10;}.cls-2{stroke:#000;stroke-width:1.98px;}.cls-3{stroke:#fff;stroke-width:2.47px;}</style></defs><title>icon_kamera</title><rect id="Controller" class="cls-1" x="10.4" y="150.4" width="99.2" height="99.2" rx="4.41" transform="translate(1.78 -0.53) rotate(0.51)"/><g id="battery1"><polygon class="cls-2" points="68.77 178.6 63.1 178.55 63.13 175.75 56.82 175.69 56.8 178.49 51.12 178.44 50.75 220.57 53.27 220.6 53.26 221.6 65.87 221.71 65.88 220.71 68.4 220.73 68.77 178.6"/><line class="cls-2" x1="59.9" y1="184.47" x2="59.83" y2="191.65"/><line class="cls-2" x1="56.28" y1="188.03" x2="63.45" y2="188.09"/><line class="cls-2" x1="56.06" y1="212.2" x2="63.23" y2="212.27"/><polygon class="cls-3" points="68.77 178.6 63.1 178.55 63.13 175.75 56.82 175.69 56.8 178.49 51.12 178.44 50.75 220.57 53.27 220.6 53.26 221.6 65.87 221.71 65.88 220.71 68.4 220.73 68.77 178.6"/><line class="cls-3" x1="59.9" y1="184.47" x2="59.83" y2="191.65"/><line class="cls-3" x1="56.28" y1="188.03" x2="63.45" y2="188.09"/><line class="cls-3" x1="56.06" y1="212.2" x2="63.23" y2="212.27"/></g></svg>