<svg xmlns="http://www.w3.org/2000/svg" id="Ebene_1" data-name="Ebene 1" viewBox="0.05 140.05 119.96 119.96"><defs><style>.cls-1{fill:#42c9c9;}.cls-2{fill:none;stroke:#fff;stroke-linecap:round;stroke-miterlimit:10;stroke-width:2.32px;}</style></defs><title>icon_kamera</title><path class="cls-1" d="M108.05,180.09A22.56,22.56,0,0,0,79.9,152a22.55,22.55,0,0,0-39.81,0A22.56,22.56,0,0,0,12,180.1a22.55,22.55,0,0,0,0,39.81A22.56,22.56,0,0,0,40.1,248.05a22.55,22.55,0,0,0,39.81,0,22.56,22.56,0,0,0,28.14-28.15,22.55,22.55,0,0,0,0-39.81Z"/><path id="waves" class="cls-2" d="M90,203.2a7.61,7.61,0,0,1-5.47,0c-2.09-.87-4.13-6.4-6.4-6.4s-4.16,6.76-6.4,6.4c-3.53-.57-2.82-12.95-6.4-12.8-4.3.18-2.09,16.22-6.4,16-5.82-.3-.57-22.64-6.39-22.41-8.16.33,1.75,31.51-6.39,32-5.05.32-1.45-18.05-6.38-19.2-2.19-.52-4.26,5.53-6.34,6.4a4.31,4.31,0,0,1-3.33,0"/></svg>