<?xml version="1.0" encoding="utf-8"?>
<!-- Generator: Adobe Illustrator 23.0.1, SVG Export Plug-In . SVG Version: 6.00 Build 0)  -->
<svg version="1.1" id="Ebene_1" xmlns="http://www.w3.org/2000/svg" xmlns:xlink="http://www.w3.org/1999/xlink" x="0px" y="0px"
	 viewBox="0 0 660 400" style="enable-background:new 0 0 660 400;" xml:space="preserve">
<style type="text/css">
	.st0{fill:#BAD270;}
	.st1{fill:#054854;}
	.st2{fill:#FFFFFF;}
	.st3{fill:#BBCFCD;}
	.st4{fill:#486A76;}
	.st5{fill:#1E1E1C;}
	.st6{fill:#BB1254;}
	.st7{fill:none;stroke:#E6007D;stroke-width:8;stroke-miterlimit:10;}
</style>
<title>calliope_feature_components</title>
<path class="st0" d="M337.5,281.7c0,3.3-2.7,5.9-5.9,5.9c-3.3,0-5.9-2.7-5.9-5.9c0-3.3,2.7-5.9,5.9-5.9c0,0,0,0,0,0
	C334.8,275.8,337.5,278.5,337.5,281.7"/>
<path class="st1" d="M512,208.7c-0.5-7.6-5.5-14.2-12.7-16.7c-13-4.4-31.3-15.8-51.9-42.8c-19.7-25.7-18-58.3-16-77.2
	c1-9.4-4.6-18.2-13.5-21.4l-0.7-0.3c-6.1-2.1-12.8-1.2-18.1,2.5c-13.1,9.2-40.7,25.8-69.2,25.8c-26.2,0-53.5-15.4-68.8-25.8
	c-7.8-5.3-18.1-5-25.7,0.6c-5.6,4.2-7,12-6.1,18.9c2.4,16.7,2.4,48.7-16.1,75.7c-14.2,20.8-36.6,34.4-51.7,41.9
	c-9.7,4.8-14.6,12-13.4,22.6s10.3,15.7,15.1,17.3c11,3.6,24,10.3,45.6,35.8c21.8,25.7,22.8,60.1,20.4,78.8
	c-1.1,8.8,0.9,17.6,7.9,23.1c6.6,5.2,18.3,3.5,25-1.6c7.9-5.9,16.3-11.6,25.1-15.6c9.8-4.5,19.2-7,25.2-7.5c3.2-0.3,6.3-1.4,7.3-4.5
	c1.2-3.7,4-8.1,10.1-8.1c5.9,0,8.8,4.1,10.1,7.7c1,2.7,3.5,4.7,6.4,4.9c4.2,0.4,11.7,2,24.9,7.1c10.9,4.1,18.9,10.3,25.5,14.7
	c11.6,7.6,20.4,5.6,26.2,1.9c5.3-3.4,8.1-9.6,7.2-15.8c-1.9-14-3.7-46.4,14.2-76.9c14.8-25.2,37.7-37.4,52.5-44.4
	C505.8,225.4,512.7,218.5,512,208.7z M167.6,220c-5.5,0-9.9-4.5-9.9-9.9s4.5-9.9,9.9-9.9c5.5,0,9.9,4.5,9.9,9.9S173.1,220,167.6,220
	L167.6,220z M248.6,59c5.5,0,9.9,4.5,9.9,9.9s-4.5,9.9-9.9,9.9c-5.5,0-9.9-4.4-9.9-9.9C238.7,63.5,243.2,59.1,248.6,59L248.6,59z
	 M249.4,361.2c-5.5,0-9.9-4.5-9.9-9.9s4.5-9.9,9.9-9.9c5.5,0,9.9,4.5,9.9,9.9C259.3,356.8,254.9,361.3,249.4,361.2
	C249.4,361.3,249.4,361.3,249.4,361.2L249.4,361.2z M283.7,250.8h-10V233h10V250.8z M283.7,225h-10v-17.8h10V225z M283.7,199.2h-10
	v-17.8h10V199.2z M283.7,173.4h-10v-17.8h10V173.4z M283.7,147.6h-10v-17.9h10V147.6z M310.1,250.8h-10V233h10V250.8z M310.1,225
	h-10v-17.8h10V225z M310.1,199.2h-10v-17.8h10V199.2z M310.1,173.4h-10v-17.8h10V173.4z M310.1,147.6h-10v-17.9h10V147.6z
	 M336.4,250.8h-10V233h10V250.8z M336.4,225h-10v-17.8h10V225z M336.4,199.2h-10v-17.8h10V199.2z M336.4,173.4h-10v-17.8h10V173.4z
	 M336.4,147.6h-10v-17.9h10V147.6z M362.7,250.8h-10V233h10V250.8z M362.7,225h-10v-17.8h10V225z M362.7,199.2h-10v-17.8h10V199.2z
	 M362.7,173.4h-10v-17.8h10V173.4z M362.7,147.6h-10v-17.9h10V147.6z M389,250.9h-10V233h10V250.9z M389,225.1h-10v-17.9h10V225.1z
	 M389,199.3h-10v-17.9h10V199.3z M389,173.5h-10v-17.9h10V173.5z M389,147.7h-10v-17.9h10V147.7z M411.3,59.7c5.5,0,9.9,4.5,9.9,9.9
	c0,5.5-4.5,9.9-9.9,9.9s-9.9-4.5-9.9-9.9C401.3,64.1,405.8,59.6,411.3,59.7C411.3,59.6,411.3,59.6,411.3,59.7L411.3,59.7z
	 M412,359.8c-5.5,0-9.9-4.5-9.9-9.9s4.5-9.9,9.9-9.9s9.9,4.5,9.9,9.9S417.5,359.8,412,359.8L412,359.8z M492.4,220.1
	c-5.5,0-9.9-4.5-9.9-9.9s4.5-9.9,9.9-9.9s9.9,4.5,9.9,9.9C502.4,215.6,497.9,220.1,492.4,220.1z"/>
<path class="st2" d="M241.3,261.4l-0.4-0.7l0.6-0.5c0-0.2,0-0.3,0-0.5c0-0.2-0.1-0.4-0.2-0.5c-0.2-0.4-0.6-0.7-1-0.7
	c-0.5,0-1,0.1-1.4,0.3l-0.2,0.1c-0.4,0.2-0.8,0.6-1,1c-0.2,0.4-0.2,0.8,0.1,1.2c0.1,0.2,0.2,0.3,0.4,0.5c0.1,0.1,0.3,0.2,0.4,0.2
	l0.7-0.2l0.4,0.7l-1,0.5c-0.3-0.1-0.7-0.2-0.9-0.4c-0.3-0.2-0.6-0.6-0.8-0.9c-0.4-0.6-0.4-1.3-0.2-2c0.2-0.7,0.7-1.3,1.4-1.6
	l0.2-0.1c0.6-0.4,1.4-0.5,2.1-0.3c0.7,0.2,1.2,0.6,1.6,1.2c0.2,0.3,0.3,0.7,0.4,1.1c0,0.3,0,0.7-0.1,1L241.3,261.4z"/>
<path class="st2" d="M241.6,264.6l0.6,1.1l1.4-1.5l0,0L241.6,264.6z M239.2,263.6l0.2,0.3l5-0.9l0.5,1l-3.4,3.8l0.1,0.4l-0.6,0.3
	l-0.9-1.6l0.6-0.3l0.2,0.3l0.5-0.6l-0.9-1.6l-0.8,0.1l0.1,0.4l-0.6,0.3l-0.9-1.6L239.2,263.6z"/>
<polygon class="st2" points="241.5,269.3 242.1,269 242.5,269.4 245.9,267.5 245.8,266.9 246.4,266.6 246.6,267.1 247.2,268.1 
	247.4,268.6 246.9,268.9 246.5,268.5 243.1,270.4 243.8,271.7 244.5,271.4 244.9,272.2 243.5,272.9 "/>
<polygon class="st2" points="243.9,273.7 244.5,273.3 244.9,273.8 248.4,271.9 248.2,271.3 248.8,271 249.1,271.5 249.6,272.5 
	249.9,273 249.3,273.3 248.9,272.9 245.5,274.7 246.3,276.1 246.9,275.8 247.3,276.5 245.9,277.3 "/>
<polygon class="st2" points="250.6,275.7 251.2,275.4 252.3,277.4 251.7,277.7 251.3,277.2 247.9,279.1 248.1,279.7 247.5,280 
	246.4,278 246.9,277.7 247.3,278.2 250.8,276.3 "/>
<path class="st2" d="M252.2,282.9c0.4-0.2,0.8-0.6,1-1c0.2-0.4,0.2-0.8,0-1.2c-0.2-0.4-0.6-0.6-1-0.6c-0.5,0-1,0.1-1.4,0.4l-0.1,0
	c-0.4,0.2-0.8,0.6-1,1c-0.2,0.4-0.2,0.8,0,1.2c0.2,0.4,0.6,0.6,1,0.7C251.3,283.3,251.8,283.2,252.2,282.9L252.2,282.9z
	 M252.7,283.9c-0.6,0.4-1.4,0.5-2.1,0.4c-0.7-0.1-1.3-0.6-1.6-1.2c-0.4-0.6-0.4-1.3-0.2-2c0.3-0.7,0.8-1.2,1.4-1.6h0.1
	c0.6-0.4,1.4-0.5,2.1-0.4c1.3,0.3,2.1,1.7,1.8,3c0,0.1,0,0.1-0.1,0.2C253.9,282.9,253.4,283.5,252.7,283.9L252.7,283.9z"/>
<path class="st2" d="M254.1,286.1l0.4,0.8c0.1,0.2,0.3,0.4,0.6,0.5c0.2,0.1,0.5,0,0.7-0.1c0.2-0.1,0.4-0.3,0.5-0.5
	c0.1-0.3,0-0.5-0.1-0.7l-0.4-0.8L254.1,286.1z M256.9,285.6c0.3,0.5,0.4,1,0.3,1.5c-0.1,0.5-0.4,0.9-0.9,1.1
	c-0.4,0.3-0.9,0.3-1.4,0.1c-0.5-0.2-0.9-0.6-1.1-1.1l-0.5-0.8l-1.1,0.6l0.2,0.6l-0.6,0.3l-1.1-2l0.6-0.3l0.4,0.5l3.5-1.9l-0.2-0.6
	l0.6-0.3l0.3,0.5L256.9,285.6z"/>
<polygon class="st2" points="257.2,292.7 256.4,291.1 255,291.9 255.8,293.4 256.4,293.1 256.8,293.9 255.5,294.6 253.4,290.8 
	254,290.5 254.4,290.9 257.8,289 257.6,288.4 258.2,288.1 258.5,288.6 260.3,291.9 259,292.6 258.6,291.9 259.2,291.5 258.3,290 
	257.1,290.7 258,292.3 "/>
<path class="st2" d="M232.4,263.3l-0.8,0.5c0.4,0,0.8,0.1,1.1,0.2c0.4,0.2,0.6,0.5,0.8,0.8c0.2,0.3,0.3,0.6,0.3,1
	c0,0.3-0.1,0.6-0.4,0.9c0.4,0,0.7,0.1,1,0.3c0.3,0.2,0.6,0.5,0.7,0.8c0.1,0.3,0.2,0.5,0.3,0.8c0,0.3,0,0.6-0.1,0.8
	c-0.1,0.3-0.3,0.6-0.5,0.8c-0.3,0.3-0.6,0.5-1,0.7l-6,3.3l-0.9-1.7l6-3.3c0.3-0.2,0.5-0.4,0.6-0.6c0-0.2,0-0.4-0.1-0.6
	c-0.1-0.2-0.2-0.3-0.4-0.4c-0.2-0.1-0.4-0.1-0.5,0l-6.4,3.5l-0.9-1.6l6-3.3c0.3-0.1,0.5-0.3,0.6-0.6c0.1-0.2,0-0.4-0.1-0.6
	c-0.1-0.2-0.2-0.3-0.4-0.4c-0.2-0.1-0.3-0.1-0.5-0.1l-6.4,3.5l-0.9-1.7l8.2-4.5L232.4,263.3z"/>
<path class="st2" d="M240.6,273.2c0.3-0.2,0.6-0.2,0.9-0.1c0.3,0.1,0.6,0.3,0.7,0.6c0.2,0.3,0.2,0.6,0.2,0.9
	c-0.2,0.6-0.8,0.9-1.4,0.8c-0.3-0.1-0.6-0.3-0.7-0.6c-0.2-0.3-0.2-0.6-0.1-0.9C240.2,273.6,240.4,273.4,240.6,273.2 M237.2,272
	l2.4,4.4l-6.7,3.7l1.4,2.4l-1.5,0.8l-3.7-6.8l1.5-0.8l1.4,2.5l5.2-2.9l-1.4-2.5L237.2,272z"/>
<path class="st2" d="M243.1,282.7l-1.1,0.8c0.6,0.1,1.1,0.3,1.6,0.5c0.5,0.3,0.9,0.7,1.1,1.2c0.2,0.4,0.4,0.8,0.5,1.2
	c0.1,0.4,0,0.8-0.1,1.2c-0.1,0.4-0.4,0.8-0.7,1.1c-0.4,0.4-0.9,0.7-1.4,1l-5.1,2.9l-1-1.8l5.2-2.8c0.3-0.1,0.6-0.3,0.8-0.6
	c0.4-0.3,0.5-0.8,0.4-1.3c-0.1-0.3-0.2-0.5-0.3-0.8c-0.4-0.7-1.2-1.2-2-1.2l-5.9,3.3l-1-1.8l8.2-4.5L243.1,282.7z"/>
<path class="st2" d="M250.6,291.5c0.3-0.2,0.6-0.2,0.9-0.1c0.3,0.1,0.6,0.3,0.7,0.6c0.2,0.3,0.2,0.6,0.1,0.9
	c-0.2,0.6-0.8,0.9-1.4,0.8c-0.6-0.2-1-0.9-0.9-1.5C250.2,291.8,250.4,291.6,250.6,291.5 M247.2,290.2l2.4,4.4l-6.7,3.7l1.4,2.4
	l-1.5,0.8l-3.8-6.8l1.5-0.8l1.4,2.6l5.2-2.9l-1.4-2.6L247.2,290.2z"/>
<path class="st2" d="M230.4,248l6-3.2l2.6,4.9l-6,3.2L230.4,248z M224.3,244l4.1-0.8l-2.5,3.8L224.3,244z M222.7,241l4.5-0.1l-2.9,3
	L222.7,241z M231.1,237.7l2.2,4l-2.7,1.5c-0.9,0.5-2,0.2-2.5-0.7c0,0,0,0,0,0l-0.5-0.8c-0.5-0.9-0.2-2,0.7-2.5c0,0,0,0,0,0
	L231.1,237.7z M240.4,248.5l-2.4-4.3c-0.4-0.6-1.2-0.9-1.8-0.5l-3.2,1.8c2.8-1.4,3.9-4.7,2.5-7.5c-1.4-2.8-4.7-3.9-7.5-2.5
	c-0.1,0.1-0.2,0.1-0.3,0.2l-5.4,2.9l-7.5-3.4c-2.9-1.3-6.4,0-7.7,2.9c-0.7,1.7-0.7,3.6,0.2,5.2l0.6,1.2c3.9-1.5,8.9-2.8,12.9-1.9
	l0.1,0.1l2.8,5.2c-1.5,3.8-5.3,7.2-8.7,9.6l0.9,1.6c1,1.8,3.3,2.5,5.1,1.5l12.5-6.8l6.4-3.4C240.5,249.9,240.7,249.1,240.4,248.5"/>
<path class="st2" d="M213.3,254.3c0.4-3.4,4-8,6.9-11.7l-10.2,5.6L213.3,254.3z"/>
<path class="st2" d="M246.9,172.2h-4.7v-1.7l1-0.2l-0.6-1.9H238l-0.6,1.9l1,0.2v1.7h-4.7v-1.7l1-0.1l4.2-12.1h2.9l4.2,12.1l1,0.1
	L246.9,172.2z M234.8,154.8l-23.2,7.5l7.8,24.2l24.5-8.4c5.9-1.9,7.7-7.3,5.8-13.2l-0.9-3C247,156.1,240.7,152.9,234.8,154.8
	C234.9,154.8,234.9,154.8,234.8,154.8"/>
<polygon class="st2" points="239.9,161.1 238.3,166 241.5,166 240,161.1 "/>
<path class="st2" d="M428.4,172.9c-1.1,0.7-2.4,1.1-3.7,1h-6.8v-1.7l1.5-0.3v-9.9l-1.5-0.3v-1.7h6.1c1.3-0.1,2.7,0.3,3.8,1
	c0.9,0.6,1.4,1.7,1.4,2.8c0,0.6-0.2,1.2-0.5,1.7c-0.4,0.5-0.9,0.9-1.5,1.1c0.7,0.1,1.4,0.5,1.9,1.1c0.4,0.6,0.6,1.3,0.6,2
	C429.7,171.1,429.3,172.2,428.4,172.9 M427.3,155.4c-6.1-1.7-12.1,2.3-13.8,8.1l-0.9,3c-1.7,5.8,1.6,11.9,7.5,13.6c0,0,0,0,0.1,0
	l21.8,6.5l7.1-24.4L427.3,155.4z"/>
<path class="st2" d="M426,164.9c0.3-0.2,0.5-0.6,0.5-1c0-0.4-0.1-0.8-0.5-1.1c-0.4-0.3-0.9-0.4-1.4-0.4h-2.4v2.8h2.5
	C425.1,165.3,425.6,165.2,426,164.9"/>
<path class="st2" d="M424.9,167.9h-2.8v4h2.5c0.6,0,1.2-0.1,1.7-0.5c0.4-0.4,0.6-0.9,0.6-1.4c0-0.6-0.1-1.1-0.5-1.6
	C426,168,425.4,167.8,424.9,167.9"/>
<path class="st3" d="M215.7,191l-18.3-9.2c-0.6-0.3-0.8-1-0.5-1.6c0,0,0,0,0,0l9.3-18.4c0.3-0.6,1-0.8,1.6-0.5c0,0,0,0,0,0l18.3,9.2
	c0.6,0.3,0.8,1,0.5,1.6l-9.3,18.4C217,191.1,216.3,191.3,215.7,191"/>
<path class="st4" d="M218.1,179.3c-1.8,3.5-6.1,4.9-9.6,3.1c-3.5-1.8-4.9-6.1-3.1-9.6c1.8-3.5,6.1-4.9,9.6-3.1
	C218.5,171.5,219.9,175.8,218.1,179.3C218.2,179.3,218.2,179.3,218.1,179.3"/>
<path class="st5" d="M210.2,165.8c-0.6,1.2-2,1.6-3.2,1s-1.6-2-1-3.2c0.6-1.2,2-1.6,3.2-1c0,0,0,0,0,0
	C210.4,163.2,210.8,164.6,210.2,165.8"/>
<path class="st5" d="M225.3,173.4c-0.6,1.2-2,1.6-3.2,1s-1.6-2-1-3.2c0.6-1.2,2-1.6,3.2-1c0,0,0,0,0,0
	C225.4,170.8,225.9,172.2,225.3,173.4"/>
<path class="st5" d="M202.6,180.8c-0.6,1.2-2,1.6-3.2,1s-1.6-2-1-3.2c0.6-1.2,2-1.6,3.2-1c0,0,0,0,0,0
	C202.8,178.2,203.2,179.6,202.6,180.8"/>
<path class="st5" d="M217.7,188.4c-0.6,1.2-2,1.6-3.2,1.1c-1.2-0.6-1.6-2-1.1-3.2c0.6-1.2,2-1.6,3.2-1.1c0,0,0,0,0,0
	C217.8,185.8,218.3,187.2,217.7,188.4"/>
<path class="st3" d="M460.8,182l-18.4,8.9c-0.6,0.3-1.3,0-1.6-0.6l-9-18.6c-0.3-0.6-0.1-1.3,0.5-1.6c0,0,0,0,0,0l18.4-8.9
	c0.6-0.3,1.3,0,1.6,0.5c0,0,0,0,0,0l9,18.6C461.7,181,461.4,181.7,460.8,182C460.8,182,460.8,182,460.8,182"/>
<path class="st6" d="M453,173c1.7,3.5,0.2,7.8-3.3,9.5c-3.5,1.7-7.8,0.2-9.5-3.3c-1.7-3.5-0.2-7.8,3.3-9.5c0,0,0,0,0,0
	C447,168,451.3,169.5,453,173"/>
<path class="st5" d="M437.4,171.1c0.6,1.2,0.1,2.6-1.1,3.2c-1.2,0.6-2.6,0.1-3.2-1.1c-0.6-1.2-0.1-2.6,1.1-3.2
	C435.4,169.4,436.9,169.9,437.4,171.1"/>
<path class="st5" d="M452.6,163.7c0.6,1.2,0.1,2.6-1.1,3.2c-1.2,0.6-2.6,0.1-3.2-1.1c-0.6-1.2-0.1-2.6,1.1-3.2c0,0,0,0,0,0
	C450.6,162.1,452,162.6,452.6,163.7C452.6,163.7,452.6,163.7,452.6,163.7"/>
<path class="st5" d="M444.8,186.2c0.6,1.2,0.1,2.6-1.1,3.2s-2.6,0.1-3.2-1.1c-0.6-1.2-0.1-2.6,1.1-3.2c0,0,0,0,0,0
	C442.8,184.5,444.2,185,444.8,186.2C444.8,186.2,444.8,186.2,444.8,186.2"/>
<path class="st5" d="M460,178.9c0.6,1.2,0.1,2.6-1.1,3.2s-2.6,0.1-3.2-1.1c-0.6-1.2-0.1-2.6,1.1-3.2c0,0,0,0,0,0
	C458,177.2,459.4,177.7,460,178.9C460,178.8,460,178.8,460,178.9"/>
<path class="st7" d="M257.8,171.3c0,18.3-14.8,33.1-33.1,33.1c-18.3,0-33.1-14.8-33.1-33.1c0-18.3,14.8-33.1,33.1-33.1
	c18.2-0.1,33,14.5,33.1,32.7C257.8,171,257.8,171.2,257.8,171.3z"/>
<path class="st7" d="M470.8,171.3c0,2.4-0.3,4.7-0.8,7.1c-3.9,17.9-21.5,29.3-39.4,25.4s-29.3-21.5-25.4-39.4
	c3.9-17.9,21.5-29.3,39.4-25.4C459.9,142.2,470.8,155.7,470.8,171.3z"/>
</svg>
