<svg xmlns="http://www.w3.org/2000/svg" id="Ebene_1" data-name="Ebene 1" viewBox="0.05 140.46 119.96 120"><defs><style>.cls-1{fill:#f7c425;}.cls-2,.cls-3,.cls-4{fill:none;stroke:#fff;}.cls-2,.cls-4{stroke-miterlimit:10;}.cls-2,.cls-3{stroke-width:1.26px;}.cls-3{stroke-linejoin:round;}.cls-4{stroke-width:3.14px;}</style></defs><title>icon_kamera</title><path class="cls-1" d="M108.05,180.54A22.56,22.56,0,0,0,79.9,152.4a22.56,22.56,0,0,0-39.81,0A22.56,22.56,0,0,0,12,180.55a22.55,22.55,0,0,0,0,39.81A22.56,22.56,0,0,0,40.1,248.5a22.55,22.55,0,0,0,39.81,0,22.56,22.56,0,0,0,28.14-28.15,22.55,22.55,0,0,0,0-39.81Z"/><g id="led"><path class="cls-2" d="M58.66,201.54l2.71,4.78-2.82,1.6,12.19,21.49m-6-31.34,2.71,4.78,2.82-1.6,8.46,14.94"/><path class="cls-3" d="M49.57,207.2l24.73-14m-4,2L61,178.77a9.76,9.76,0,0,0-17,9.64l9.29,16.37"/><path class="cls-4" d="M58.66,201.54l2.71,4.78-2.82,1.6,12.19,21.49m-6-31.34,2.71,4.78,2.82-1.6,8.46,14.94"/><path class="cls-4" d="M49.57,207.2l24.73-14m-4,2L61,178.77a9.76,9.76,0,0,0-17,9.64l9.29,16.37"/></g></svg>