<svg xmlns="http://www.w3.org/2000/svg" id="Ebene_1" data-name="Ebene 1" viewBox="0.09 139.25 119.88 121.51"><defs><style>.cls-1{fill:#42c9c9;}.cls-2{fill:none;stroke:#fff;stroke-miterlimit:10;stroke-width:3px;}</style></defs><title>icon_kamera</title><path class="cls-1" d="M108.05,179.85a23.05,23.05,0,0,0-3.11-19.76,22.41,22.41,0,0,0-25-8.74,22.42,22.42,0,0,0-39.81,0,22.24,22.24,0,0,0-19.51,3.14A23,23,0,0,0,12,179.85a23,23,0,0,0,0,40.3,23.05,23.05,0,0,0,3.11,19.76,22.41,22.41,0,0,0,25,8.74,22.42,22.42,0,0,0,39.81,0,22.24,22.24,0,0,0,19.51-3.14,23,23,0,0,0,8.63-25.35,23,23,0,0,0,0-40.3Z"/><g id="micro"><line class="cls-2" x1="58.97" y1="216.68" x2="58.97" y2="223.72"/><path class="cls-2" d="M76.23,191.48v6.17A16.37,16.37,0,0,1,59.86,214h0a16.38,16.38,0,0,1-16.38-16.38v-6.17"/><rect class="cls-2" x="49.24" y="176.28" width="21.42" height="31.38" rx="10.71"/><line class="cls-2" x1="48.41" y1="192.03" x2="70.54" y2="192.03"/></g></svg>