<svg xmlns="http://www.w3.org/2000/svg" id="Ebene_1" data-name="Ebene 1" viewBox="0 140 120 120"><defs><style>.cls-1{fill:#3fc863;}.cls-2,.cls-3{fill:none;stroke:#fff;stroke-miterlimit:10;stroke-width:3px;}.cls-2{stroke-linecap:round;}</style></defs><title>icon_kamera</title><circle class="cls-1" cx="60" cy="200" r="60"/><g id="drill"><path class="cls-2" d="M44.33,174.66H72.4a0,0,0,0,1,0,0v21a0,0,0,0,1,0,0H44.33a8.06,8.06,0,0,1-8.06-8.06v-4.86A8.06,8.06,0,0,1,44.33,174.66Z"/><path class="cls-2" d="M72.4,177.77h8.9A5.67,5.67,0,0,1,87,183.44v3.42a5.67,5.67,0,0,1-5.67,5.67H72.4"/><line class="cls-3" x1="86.97" y1="185.15" x2="94.47" y2="185.15"/><line class="cls-2" x1="43.47" y1="180.69" x2="49.78" y2="180.69"/><line class="cls-2" x1="43.47" y1="185.09" x2="49.78" y2="185.09"/><line class="cls-2" x1="43.47" y1="189.49" x2="49.78" y2="189.49"/><rect class="cls-2" x="37.48" y="214.93" width="23.55" height="14.71" rx="3.47"/><line class="cls-2" x1="59.76" y1="195.64" x2="54.7" y2="214.2"/><line class="cls-2" x1="46.92" y1="214.2" x2="51.98" y2="195.64"/><polyline class="cls-2" points="65.16 195.64 64.43 202.03 58.02 202.03"/></g></svg>