<svg xmlns="http://www.w3.org/2000/svg" id="Ebene_1" data-name="Ebene 1" viewBox="0.09 139.25 119.88 121.51"><defs><style>.cls-1{fill:#42c9c9;}.cls-2{fill:none;stroke:#fff;stroke-linecap:round;stroke-linejoin:round;stroke-width:3px;}</style></defs><title>icon_kamera</title><path class="cls-1" d="M108.05,179.85a23.05,23.05,0,0,0-3.11-19.76,22.41,22.41,0,0,0-25-8.74,22.42,22.42,0,0,0-39.81,0,22.24,22.24,0,0,0-19.51,3.14A23,23,0,0,0,12,179.85a23,23,0,0,0,0,40.3,23.05,23.05,0,0,0,3.11,19.76,22.41,22.41,0,0,0,25,8.74,22.42,22.42,0,0,0,39.81,0,22.24,22.24,0,0,0,19.51-3.14,23,23,0,0,0,8.63-25.35,23,23,0,0,0,0-40.3Z"/><g id="termometer"><path class="cls-2" d="M66.83,212.64v-37A6.83,6.83,0,0,0,60,168.76h0a6.83,6.83,0,0,0-6.83,6.83v37a10.56,10.56,0,1,0,13.66,0Z"/><circle class="cls-2" cx="60" cy="220.42" r="4.79"/><line class="cls-2" x1="60" y1="215.63" x2="60" y2="190.33"/></g></svg>