<svg xmlns="http://www.w3.org/2000/svg" id="Ebene_1" data-name="Ebene 1" viewBox="9.96 149.96 100.08 100.08"><defs><style>.cls-1{fill:#e40d7d;}.cls-2{fill:#fff;}</style></defs><title>icon_kamera</title><rect id="Controller" class="cls-1" x="10.4" y="150.4" width="99.2" height="99.2" rx="4.41" transform="translate(1.78 -0.53) rotate(0.51)"/><path class="cls-2" d="M51.84,189.34l-3.58-3.58a7.18,7.18,0,0,0-10.16,0L28,195.85H23a1.74,1.74,0,0,0-1.74,1.74v17A1.74,1.74,0,0,0,23,216.34H40a1.74,1.74,0,0,0,1.74-1.73v-5l10.08-10.08A7.19,7.19,0,0,0,51.84,189.34ZM35.91,210.5a6.22,6.22,0,1,1,1.82-4.4A6.23,6.23,0,0,1,35.91,210.5Zm12-12.59H44.81V196.8l.64-.12-.4-1.26h-3l-.4,1.26.64.12v1.11H39.16V196.8l.66-.09.3-.86,2.5-7.15h1.89l2.78,8,.66.09Z"/><polygon class="cls-2" points="44.61 194.06 42.49 194.06 43.54 190.82 43.57 190.82 44.61 194.06"/><path class="cls-2" d="M77.94,192.06a.93.93,0,0,1-.35.78,1.64,1.64,0,0,1-1,.27H75.4V191h1.13a1.76,1.76,0,0,1,1.06.27A1,1,0,0,1,77.94,192.06Z"/><path class="cls-2" d="M78.25,195.48a1,1,0,0,1-.35.83,1.48,1.48,0,0,1-1,.29H75.4v-2.36H77a1.19,1.19,0,0,1,.92.32A1.29,1.29,0,0,1,78.25,195.48Z"/><path class="cls-2" d="M96.72,195.85h-5L81.62,185.76a7.19,7.19,0,0,0-10.17,0l-3.57,3.58a7.19,7.19,0,0,0,0,10.17L78,209.59v5a1.74,1.74,0,0,0,1.74,1.73h17a1.74,1.74,0,0,0,1.74-1.73v-17A1.74,1.74,0,0,0,96.72,195.85Zm-19.81,2h-4v-1l.87-.17v-5.85l-.87-.17v-1h3.63a3.93,3.93,0,0,1,2.24.55,1.92,1.92,0,0,1,.81,1.68,1.76,1.76,0,0,1-.3,1,1.8,1.8,0,0,1-.87.67,1.73,1.73,0,0,1,1.09.67,2,2,0,0,1,.37,1.2,2.23,2.23,0,0,1,0,.37,2,2,0,0,1-.75,1.4,2.71,2.71,0,0,1-1.14.5A4.8,4.8,0,0,1,76.91,197.85Zm11.3,14.47a6.22,6.22,0,1,1,0-12.44,6.22,6.22,0,1,1,0,12.44Z"/></svg>