<?xml version="1.0" encoding="utf-8"?>
<!-- Generator: Adobe Illustrator 23.0.1, SVG Export Plug-In . SVG Version: 6.00 Build 0)  -->
<svg version="1.1" id="Ebene_1" xmlns="http://www.w3.org/2000/svg" xmlns:xlink="http://www.w3.org/1999/xlink" x="0px" y="0px"
	 viewBox="0 0 660 400" style="enable-background:new 0 0 660 400;" xml:space="preserve">
<style type="text/css">
	.st0{fill:#B77B56;}
	.st1{fill:#054854;}
	.st2{fill:none;stroke:#E6007D;stroke-width:8;stroke-miterlimit:10;}
</style>
<title>calliope_feature_components</title>
<path class="st0" d="M234.1,248c-2.6,2-6.3,1.6-8.3-0.9s-1.6-6.3,0.9-8.3c2.6-2,6.3-1.6,8.3,0.9C237,242.2,236.6,245.9,234.1,248
	C234.1,248,234.1,248,234.1,248"/>
<path class="st1" d="M512,208.7c-0.5-7.6-5.5-14.2-12.7-16.7c-13-4.4-31.3-15.8-51.9-42.8c-19.7-25.7-18-58.3-16-77.2
	c1-9.4-4.6-18.2-13.5-21.4l-0.7-0.3c-6.1-2.1-12.8-1.2-18.1,2.5c-13.1,9.2-40.7,25.8-69.2,25.8c-26.2,0-53.5-15.4-68.8-25.8
	c-7.8-5.3-18.1-5-25.7,0.6c-5.6,4.2-7,12-6.1,18.9c2.4,16.7,2.4,48.7-16.1,75.7c-14.2,20.8-36.6,34.4-51.7,41.9
	c-9.7,4.8-14.6,12-13.4,22.6s10.3,15.7,15.1,17.3c11,3.6,24,10.3,45.6,35.8c21.8,25.7,22.8,60.1,20.4,78.8
	c-1.1,8.8,0.9,17.6,7.9,23.1c6.6,5.2,18.3,3.5,25-1.6c7.9-5.9,16.3-11.6,25.1-15.6c9.8-4.5,19.2-7,25.2-7.5c3.2-0.3,6.3-1.4,7.3-4.5
	c1.2-3.7,4-8.1,10.1-8.1c5.9,0,8.8,4.1,10.1,7.7c1,2.7,3.5,4.7,6.4,4.9c4.2,0.4,11.7,2,24.9,7.1c10.9,4.1,18.9,10.3,25.5,14.7
	c11.6,7.6,20.4,5.6,26.2,1.9c5.3-3.4,8.1-9.6,7.2-15.8c-1.9-14-3.7-46.4,14.2-76.9c14.8-25.2,37.7-37.4,52.5-44.4
	C505.8,225.4,512.7,218.5,512,208.7z M167.6,220c-5.5,0-9.9-4.5-9.9-9.9s4.5-9.9,9.9-9.9c5.5,0,9.9,4.5,9.9,9.9S173.1,220,167.6,220
	L167.6,220z M248.6,59c5.5,0,9.9,4.5,9.9,9.9s-4.5,9.9-9.9,9.9c-5.5,0-9.9-4.4-9.9-9.9C238.7,63.5,243.2,59.1,248.6,59L248.6,59z
	 M249.4,361.2c-5.5,0-9.9-4.5-9.9-9.9s4.5-9.9,9.9-9.9c5.5,0,9.9,4.5,9.9,9.9C259.3,356.8,254.9,361.3,249.4,361.2
	C249.4,361.3,249.4,361.3,249.4,361.2L249.4,361.2z M283.7,250.8h-10V233h10V250.8z M283.7,225h-10v-17.8h10V225z M283.7,199.2h-10
	v-17.8h10V199.2z M283.7,173.4h-10v-17.8h10V173.4z M283.7,147.6h-10v-17.9h10V147.6z M310.1,250.8h-10V233h10V250.8z M310.1,225
	h-10v-17.8h10V225z M310.1,199.2h-10v-17.8h10V199.2z M310.1,173.4h-10v-17.8h10V173.4z M310.1,147.6h-10v-17.9h10V147.6z
	 M336.4,250.8h-10V233h10V250.8z M336.4,225h-10v-17.8h10V225z M336.4,199.2h-10v-17.8h10V199.2z M336.4,173.4h-10v-17.8h10V173.4z
	 M336.4,147.6h-10v-17.9h10V147.6z M362.7,250.8h-10V233h10V250.8z M362.7,225h-10v-17.8h10V225z M362.7,199.2h-10v-17.8h10V199.2z
	 M362.7,173.4h-10v-17.8h10V173.4z M362.7,147.6h-10v-17.9h10V147.6z M389,250.9h-10V233h10V250.9z M389,225.1h-10v-17.9h10V225.1z
	 M389,199.3h-10v-17.9h10V199.3z M389,173.5h-10v-17.9h10V173.5z M389,147.7h-10v-17.9h10V147.7z M411.3,59.7c5.5,0,9.9,4.5,9.9,9.9
	c0,5.5-4.5,9.9-9.9,9.9s-9.9-4.5-9.9-9.9C401.3,64.1,405.8,59.6,411.3,59.7C411.3,59.6,411.3,59.6,411.3,59.7L411.3,59.7z
	 M412,359.8c-5.5,0-9.9-4.5-9.9-9.9s4.5-9.9,9.9-9.9s9.9,4.5,9.9,9.9S417.5,359.8,412,359.8L412,359.8z M492.4,220.1
	c-5.5,0-9.9-4.5-9.9-9.9s4.5-9.9,9.9-9.9s9.9,4.5,9.9,9.9C502.4,215.6,497.9,220.1,492.4,220.1z"/>
<path class="st2" d="M231.3,216.4l42.8,69.1c3.5,5.6,1.8,13-3.9,16.5L251,313.9c-5.6,3.5-13,1.8-16.5-3.9l-42.8-69.1
	c-3.5-5.6-1.8-13,3.9-16.5l19.2-11.9C220.4,209,227.8,210.8,231.3,216.4z"/>
<rect x="201.5" y="231.1" transform="matrix(0.8502 -0.5265 0.5265 0.8502 -91.0528 146.8849)" class="st0" width="22.1" height="4.7"/>
<rect x="221.2" y="230.5" transform="matrix(0.8502 -0.5265 0.5265 0.8502 -107.4623 157.7813)" class="st0" width="4.7" height="74.5"/>
<rect x="230" y="223" transform="matrix(0.8502 -0.5265 0.5265 0.8502 -96.1757 159.5827)" class="st0" width="4.7" height="51.6"/>
<rect x="234.7" y="261.9" transform="matrix(0.8486 -0.5291 0.5291 0.8486 -107.5702 166.463)" class="st0" width="4.7" height="18.6"/>
<rect x="228.6" y="270.4" transform="matrix(0.8502 -0.5265 0.5265 0.8502 -108.8245 163.1099)" class="st0" width="7.1" height="4.7"/>
<rect x="237.2" y="273.1" transform="matrix(0.8502 -0.5265 0.5265 0.8502 -107.0771 171.1044)" class="st0" width="19.7" height="1.2"/>
</svg>
