<svg xmlns="http://www.w3.org/2000/svg" id="Ebene_1" data-name="Ebene 1" viewBox="3.16 147.94 124.72 90.3"><defs><style>.cls-1,.cls-4{fill:#8073e5;}.cls-2,.cls-3{fill:none;stroke:#fff;}.cls-2{stroke-linecap:round;stroke-linejoin:round;stroke-width:2.63px;}.cls-3,.cls-4{stroke-miterlimit:10;}.cls-3{stroke-width:2.19px;}.cls-4{stroke:#8073e5;}</style></defs><title>icon_kamera</title><g id="cloud2"><path class="cls-1" d="M87.91,172.78a30.66,30.66,0,0,0-4.83.39c0-.13,0-.26,0-.39a24.84,24.84,0,0,0-49.68,0C16.7,172.78,3.16,189.32,3.16,206s13.54,32.24,30.25,32.24h54.5c16.7,0,30.24-15.54,30.24-32.24S104.61,172.78,87.91,172.78Z"/></g><g id="sound"><polyline class="cls-2" points="50.54 215.47 50.54 184.72 74.2 181.97 74.2 211.97"/><ellipse class="cls-3" cx="42.59" cy="215.78" rx="7.63" ry="5.99"/><ellipse class="cls-3" cx="66.34" cy="213.03" rx="7.68" ry="6.03"/></g><path class="cls-4" d="M112.24,166c-1.19,1.06-1.64,2.5-1,3.22s2.1.45,3.28-.6,1.64-2.51,1-3.23-2.09-.45-3.28.61"/><path class="cls-4" d="M95.54,154.82c-.85,1.78-1.05,3.65-.44,4.17s1.78-.5,2.63-2.28,1-3.65.44-4.17-1.78.5-2.63,2.28"/><path class="cls-4" d="M123.7,183.35c-1.71.18-2.84,1-2.54,1.88s1.93,1.42,3.63,1.24,2.84-1,2.54-1.88-1.93-1.42-3.63-1.24"/></svg>