<svg xmlns="http://www.w3.org/2000/svg" id="Ebene_1" data-name="Ebene 1" viewBox="0 140 120 120"><defs><style>.cls-1{fill:#c6b272;}.cls-2{fill:#fff;}</style></defs><title>icon_kamera</title><circle class="cls-1" cx="60" cy="200" r="60"/><path class="cls-2" d="M60.89,210.57a10,10,0,1,1,10-10,10,10,0,0,1-10,10m0-31.86a21.88,21.88,0,1,0,21.88,21.88,21.87,21.87,0,0,0-21.88-21.88"/><path class="cls-2" d="M79.6,192.56a1.1,1.1,0,0,1-.18-2.18A20.36,20.36,0,0,0,95.13,176.2a1.1,1.1,0,0,1,2.12.58,22.36,22.36,0,0,1-17.47,15.76Z"/><circle class="cls-2" cx="97.19" cy="174.51" r="3.7"/><path class="cls-2" d="M35,202.37a22.37,22.37,0,0,1-16.16-6.85,1.1,1.1,0,0,1,.05-1.55,1.08,1.08,0,0,1,1.54,0,20.38,20.38,0,0,0,20.52,5.24,1.09,1.09,0,1,1,.68,2.08A21.41,21.41,0,0,1,35,202.37Z"/><circle class="cls-2" cx="17.78" cy="193.48" r="3.7"/></svg>