<svg xmlns="http://www.w3.org/2000/svg" id="Ebene_1" data-name="Ebene 1" viewBox="0 140 120 120"><defs><style>.cls-1{fill:#48525f;}.cls-2{fill:#e6007d;}.cls-3{fill:#1c94f9;}.cls-4{fill:#8073e5;}.cls-5{fill:#3fc863;}.cls-6{fill:#f7c425;}.cls-7{fill:#42c9c9;}.cls-8{fill:#fff;}</style></defs><title>icon_kamera</title><circle class="cls-1" cx="60" cy="200" r="60"/><path class="cls-2" d="M51.19,190.39c0-.5-.07-1-.07-1.48a22.14,22.14,0,0,1,8-17A22.18,22.18,0,1,0,37,209.61,22.16,22.16,0,0,1,51.19,190.39Z"/><path class="cls-3" d="M95.5,188.91a22.19,22.19,0,0,0-36.39-17,22.11,22.11,0,0,1,8,17c0,.5,0,1-.08,1.48a22.15,22.15,0,0,1,14.2,19.22A22.16,22.16,0,0,0,95.5,188.91Z"/><path class="cls-4" d="M51.12,188.91c0,.5,0,1,.07,1.48a21.93,21.93,0,0,1,15.84,0c0-.5.08-1,.08-1.48a22.11,22.11,0,0,0-8-17A22.14,22.14,0,0,0,51.12,188.91Z"/><path class="cls-5" d="M59.11,206A22.08,22.08,0,0,1,37,209.61c0,.5-.07,1-.07,1.48a22.19,22.19,0,1,0,44.37,0c0-.5,0-1-.07-1.48A22.1,22.1,0,0,1,59.11,206Z"/><path class="cls-6" d="M59.11,206a22.15,22.15,0,0,1-7.92-15.56A22.16,22.16,0,0,0,37,209.61,22.08,22.08,0,0,0,59.11,206Z"/><path class="cls-7" d="M67,190.39A22.08,22.08,0,0,1,59.11,206a22.1,22.1,0,0,0,22.12,3.66A22.15,22.15,0,0,0,67,190.39Z"/><path class="cls-8" d="M51.19,190.39A22.15,22.15,0,0,0,59.11,206,22.08,22.08,0,0,0,67,190.39a21.93,21.93,0,0,0-15.84,0Z"/></svg>