<svg xmlns="http://www.w3.org/2000/svg" viewBox="0 0 950 50">
  <defs>
    <style>
      .cls-1 {
        fill: #3fc863;
      }

      .cls-2 {
        fill: #f6f6f6;
      }
    </style>
  </defs>
  <title>Asset 10</title>
  <g id="Layer_2" data-name="Layer 2">
    <g id="Layer_1-2" data-name="Layer 1">
      <rect class="cls-1" width="950" height="50"/>
      <g>
        <path class="cls-2" d="M303.64,33.11V16.05h4.42a7.78,7.78,0,0,1,3.07.58,7,7,0,0,1,2.36,1.62A7.31,7.31,0,0,1,315,20.73a9.15,9.15,0,0,1,.53,3.16V25.3a9.15,9.15,0,0,1-.53,3.16,7.5,7.5,0,0,1-1.5,2.47,6.69,6.69,0,0,1-2.3,1.61,7.57,7.57,0,0,1-3,.57ZM307,18.72V30.47h1.27a3.71,3.71,0,0,0,1.66-.36,3.29,3.29,0,0,0,1.24-1,4.7,4.7,0,0,0,.78-1.62,8,8,0,0,0,.27-2.17V23.87a7.51,7.51,0,0,0-.27-2.09,4.66,4.66,0,0,0-.78-1.63,3.65,3.65,0,0,0-1.29-1,4,4,0,0,0-1.77-.38Z"/>
        <path class="cls-2" d="M326.15,33.11a2.26,2.26,0,0,1-.2-.54,5.51,5.51,0,0,1-.14-.64,4.13,4.13,0,0,1-.62.55,5,5,0,0,1-.78.45,5.18,5.18,0,0,1-.94.31,5.82,5.82,0,0,1-2.91-.17,4.35,4.35,0,0,1-1.4-.79,3.55,3.55,0,0,1-1.24-2.72,3.62,3.62,0,0,1,1.5-3.1,7.5,7.5,0,0,1,4.46-1.09h1.81v-.75a1.85,1.85,0,0,0-.6-1.45,2.46,2.46,0,0,0-1.72-.53,2.09,2.09,0,0,0-1.45.42,1.49,1.49,0,0,0-.46,1.15H318.2a3.45,3.45,0,0,1,.36-1.54,3.94,3.94,0,0,1,1-1.28,5.55,5.55,0,0,1,1.68-.87,7.5,7.5,0,0,1,2.27-.32,7.74,7.74,0,0,1,2.14.28,5.24,5.24,0,0,1,1.71.83,3.76,3.76,0,0,1,1.14,1.39,4.43,4.43,0,0,1,.41,1.94v5.44a8.85,8.85,0,0,0,.13,1.69,4.24,4.24,0,0,0,.37,1.14v.2ZM323,30.83a3.36,3.36,0,0,0,.92-.12,4,4,0,0,0,.76-.3,3,3,0,0,0,.59-.43,2.09,2.09,0,0,0,.38-.49V27.31H324a4.89,4.89,0,0,0-1.3.15,2.4,2.4,0,0,0-.88.41,1.69,1.69,0,0,0-.51.63,2,2,0,0,0-.16.8,1.41,1.41,0,0,0,.46,1.09A2,2,0,0,0,323,30.83Z"/>
        <path class="cls-2" d="M340.81,29.63a1,1,0,0,0-.14-.51,1.27,1.27,0,0,0-.48-.42,4.19,4.19,0,0,0-.92-.36c-.38-.11-.86-.21-1.45-.32a14.48,14.48,0,0,1-2-.56,6.16,6.16,0,0,1-1.58-.81,3.53,3.53,0,0,1-1-1.1,2.69,2.69,0,0,1-.37-1.42,3.14,3.14,0,0,1,.37-1.5,3.79,3.79,0,0,1,1.08-1.26,5.47,5.47,0,0,1,1.71-.85,7.28,7.28,0,0,1,2.27-.32,8.27,8.27,0,0,1,2.38.31,5.52,5.52,0,0,1,1.79.86,3.71,3.71,0,0,1,1.12,1.29,3.47,3.47,0,0,1,.39,1.63h-3.26a1.55,1.55,0,0,0-.6-1.24,2.8,2.8,0,0,0-1.82-.5,2.89,2.89,0,0,0-1.71.42,1.18,1.18,0,0,0-.58,1,1.27,1.27,0,0,0,.11.52,1.16,1.16,0,0,0,.42.44,3.4,3.4,0,0,0,.82.35,8.73,8.73,0,0,0,1.31.27,17.57,17.57,0,0,1,2.13.49,6.33,6.33,0,0,1,1.7.75,3.45,3.45,0,0,1,1.12,1.13,2.93,2.93,0,0,1,.4,1.57,3.12,3.12,0,0,1-.4,1.56,3.7,3.7,0,0,1-1.15,1.22,6,6,0,0,1-1.8.8,9,9,0,0,1-2.35.29,7.78,7.78,0,0,1-2.53-.38,5.87,5.87,0,0,1-1.83-1,4,4,0,0,1-1.12-1.38,3.34,3.34,0,0,1-.38-1.54h3.1a1.91,1.91,0,0,0,.28.89,2.16,2.16,0,0,0,.64.6,2.87,2.87,0,0,0,.88.33,4.93,4.93,0,0,0,1,.11,3.57,3.57,0,0,0,1.84-.39A1.15,1.15,0,0,0,340.81,29.63Z"/>
        <path class="cls-2" d="M366.4,26.11l-1.8,2v5h-3.31V16.05h3.31v7.82l1.54-2.09,4.15-5.73h4l-5.74,7.55,6,9.51h-3.92Z"/>
        <path class="cls-2" d="M375.39,26.66a7.77,7.77,0,0,1,.4-2.56A5.84,5.84,0,0,1,377,22.05a5.34,5.34,0,0,1,1.87-1.36,6.83,6.83,0,0,1,5.08,0,5.38,5.38,0,0,1,1.88,1.36A6,6,0,0,1,387,24.1a8,8,0,0,1,.4,2.56v.24a8.1,8.1,0,0,1-.4,2.57,6,6,0,0,1-1.16,2.05,5.23,5.23,0,0,1-1.88,1.35,6.14,6.14,0,0,1-2.53.49,6.27,6.27,0,0,1-2.55-.49A5.23,5.23,0,0,1,377,31.52a5.84,5.84,0,0,1-1.17-2.05,7.83,7.83,0,0,1-.4-2.57Zm3.26.24a7.2,7.2,0,0,0,.15,1.5,3.8,3.8,0,0,0,.48,1.22,2.47,2.47,0,0,0,.85.82,2.5,2.5,0,0,0,1.26.31,2.39,2.39,0,0,0,1.23-.31,2.44,2.44,0,0,0,.84-.82,4,4,0,0,0,.47-1.22,6.57,6.57,0,0,0,.16-1.5v-.24a6.31,6.31,0,0,0-.16-1.47,4,4,0,0,0-.47-1.22,2.38,2.38,0,0,0-.84-.83,2.44,2.44,0,0,0-1.25-.3A2.33,2.33,0,0,0,379.28,24a3.8,3.8,0,0,0-.48,1.22,6.91,6.91,0,0,0-.15,1.47Z"/>
        <path class="cls-2" d="M390.92,15.11H398V30.47h3.63v2.64H390.92V30.47h3.8V17.77h-3.8Z"/>
        <path class="cls-2" d="M405.32,15.11h7.09V30.47H416v2.64H405.32V30.47h3.8V17.77h-3.8Z"/>
        <path class="cls-2" d="M425.2,33.35a7,7,0,0,1-2.66-.48,6.42,6.42,0,0,1-2.06-1.31,5.74,5.74,0,0,1-1.31-1.94,6.22,6.22,0,0,1-.47-2.4v-.47a7.48,7.48,0,0,1,.46-2.65A6.23,6.23,0,0,1,420.44,22a5.65,5.65,0,0,1,1.94-1.35,6.19,6.19,0,0,1,2.45-.48,6.3,6.3,0,0,1,2.45.45,5.11,5.11,0,0,1,1.81,1.27,5.37,5.37,0,0,1,1.13,2,7.93,7.93,0,0,1,.39,2.55v1.38H422a3.55,3.55,0,0,0,.38,1.18,3.26,3.26,0,0,0,.73.92,3.45,3.45,0,0,0,1,.59,3.6,3.6,0,0,0,1.25.21,5.12,5.12,0,0,0,1-.09,4.13,4.13,0,0,0,1.72-.73,3,3,0,0,0,.65-.63L430.35,31a4.41,4.41,0,0,1-.79.85,5.42,5.42,0,0,1-1.15.74,7.35,7.35,0,0,1-3.21.72Zm-.39-10.51a2.56,2.56,0,0,0-1,.19,2.32,2.32,0,0,0-.8.56,3.1,3.1,0,0,0-.58.86,4.27,4.27,0,0,0-.35,1.13h5.34v-.26a3.1,3.1,0,0,0-.2-1,2.22,2.22,0,0,0-.5-.79,2.28,2.28,0,0,0-.81-.53A2.83,2.83,0,0,0,424.81,22.84Z"/>
        <path class="cls-2" d="M433.12,26.68a9.16,9.16,0,0,1,.36-2.64,6.16,6.16,0,0,1,1-2.05,4.59,4.59,0,0,1,1.62-1.32,4.81,4.81,0,0,1,2.14-.47,4.46,4.46,0,0,1,1.91.37,3.83,3.83,0,0,1,1.36,1.07l.13-1.21h3V32.7a5.75,5.75,0,0,1-.44,2.3A4.93,4.93,0,0,1,443,36.7a5.39,5.39,0,0,1-1.9,1,7.92,7.92,0,0,1-2.45.36,6.9,6.9,0,0,1-1.23-.12,7.88,7.88,0,0,1-1.3-.36,7,7,0,0,1-1.22-.63,4.26,4.26,0,0,1-1-.91l1.46-2a4.33,4.33,0,0,0,1.41,1.07,3.88,3.88,0,0,0,1.7.37,3,3,0,0,0,2.14-.73,2.75,2.75,0,0,0,.77-2.08V32a4,4,0,0,1-3.12,1.34,4.52,4.52,0,0,1-2.13-.49,4.82,4.82,0,0,1-1.61-1.34,6.15,6.15,0,0,1-1-2,8.75,8.75,0,0,1-.36-2.56Zm3.27.25a6.34,6.34,0,0,0,.16,1.48A3.54,3.54,0,0,0,437,29.6a2.57,2.57,0,0,0,.83.81,2.42,2.42,0,0,0,1.2.29,2.72,2.72,0,0,0,1.41-.33,2.43,2.43,0,0,0,.89-.91V24.09a2.32,2.32,0,0,0-.89-.92,2.77,2.77,0,0,0-1.39-.32,2.26,2.26,0,0,0-1.19.3,2.44,2.44,0,0,0-.84.82,3.86,3.86,0,0,0-.5,1.22,6.42,6.42,0,0,0-.16,1.49Z"/>
        <path class="cls-2" d="M448.72,20.43h6.9v10h3.43v2.64H448.72V30.47h3.6V23.09h-3.6Zm3.37-3.24a1.82,1.82,0,0,1,.14-.7,1.4,1.4,0,0,1,.38-.55,1.83,1.83,0,0,1,.59-.36,2.3,2.3,0,0,1,.77-.13,1.93,1.93,0,0,1,1.37.49,1.79,1.79,0,0,1,0,2.5,1.92,1.92,0,0,1-1.37.48,2.07,2.07,0,0,1-.77-.13,1.65,1.65,0,0,1-.59-.35,1.43,1.43,0,0,1-.38-.56A1.74,1.74,0,0,1,452.09,17.19Z"/>
        <path class="cls-2" d="M470.34,31.33a4.81,4.81,0,0,1-1.56,1.49,3.78,3.78,0,0,1-2,.54,5,5,0,0,1-1.81-.31,3.45,3.45,0,0,1-1.4-1,4.55,4.55,0,0,1-.91-1.69,8.14,8.14,0,0,1-.32-2.47v-7.5h3.25V28a6,6,0,0,0,.12,1.3,2.14,2.14,0,0,0,.35.85,1.39,1.39,0,0,0,.65.46,3,3,0,0,0,1,.14,3,3,0,0,0,1.58-.37,2.33,2.33,0,0,0,.93-1v-8.9h3.27V33.11h-3Z"/>
        <path class="cls-2" d="M478.68,20.43l.09,1.54a3.24,3.24,0,0,1,1-1.3,2.55,2.55,0,0,1,1.55-.47,1.91,1.91,0,0,1,2,1.35,2.85,2.85,0,0,1,1-1,2.58,2.58,0,0,1,1.4-.36,2.72,2.72,0,0,1,1.07.21,2.32,2.32,0,0,1,.87.67,3.53,3.53,0,0,1,.57,1.2,6.56,6.56,0,0,1,.21,1.79v9h-3V24.05a1.94,1.94,0,0,0-.07-.59,1,1,0,0,0-.21-.37.73.73,0,0,0-.3-.19,1.33,1.33,0,0,0-.34,0,1,1,0,0,0-.94.58v9.68h-2.87V24a2.32,2.32,0,0,0-.07-.59.87.87,0,0,0-.2-.37.75.75,0,0,0-.28-.18,1.34,1.34,0,0,0-.35,0,.87.87,0,0,0-.61.21,1.51,1.51,0,0,0-.36.56v9.49h-3V20.43Z"/>
        <path class="cls-2" d="M513.54,31.33A4.78,4.78,0,0,1,512,32.82a3.81,3.81,0,0,1-2,.54,5,5,0,0,1-1.8-.31,3.42,3.42,0,0,1-1.41-1,4.54,4.54,0,0,1-.9-1.69,8.12,8.12,0,0,1-.33-2.47v-7.5h3.26V28a6.78,6.78,0,0,0,.11,1.3,2.3,2.3,0,0,0,.36.85,1.36,1.36,0,0,0,.64.46,3.08,3.08,0,0,0,1,.14,3,3,0,0,0,1.58-.37,2.37,2.37,0,0,0,.92-1v-8.9h3.27V33.11h-2.95Zm-6.91-14.28a1.4,1.4,0,0,1,.12-.58,1.36,1.36,0,0,1,.32-.47,1.74,1.74,0,0,1,.51-.31,1.87,1.87,0,0,1,.64-.11,1.93,1.93,0,0,1,.65.11,1.69,1.69,0,0,1,.5.31,1.54,1.54,0,0,1,.33.47,1.44,1.44,0,0,1,0,1.15,1.29,1.29,0,0,1-.33.46,1.69,1.69,0,0,1-.5.31,1.93,1.93,0,0,1-.65.11,1.87,1.87,0,0,1-.64-.11,1.74,1.74,0,0,1-.51-.31,1.16,1.16,0,0,1-.32-.46A1.39,1.39,0,0,1,506.63,17.05Zm5.62,0a1.4,1.4,0,0,1,.12-.58,1.39,1.39,0,0,1,.33-.46,1.48,1.48,0,0,1,.5-.3,1.71,1.71,0,0,1,.65-.12,1.66,1.66,0,0,1,.64.12,1.53,1.53,0,0,1,.51.3,1.23,1.23,0,0,1,.32.46,1.46,1.46,0,0,1,0,1.16,1.27,1.27,0,0,1-.32.47,1.55,1.55,0,0,1-.51.31,1.66,1.66,0,0,1-.64.11,1.71,1.71,0,0,1-.65-.11,1.51,1.51,0,0,1-.5-.31,1.43,1.43,0,0,1-.33-.47A1.4,1.4,0,0,1,512.25,17.05Z"/>
        <path class="cls-2" d="M531.28,26.9a10,10,0,0,1-.31,2.6,5.8,5.8,0,0,1-.93,2,4.28,4.28,0,0,1-1.54,1.33,4.65,4.65,0,0,1-2.16.48,4.16,4.16,0,0,1-1.93-.42,4.21,4.21,0,0,1-1.4-1.16l-.15,1.34h-2.93v-18h3.26v6.47a3.89,3.89,0,0,1,1.33-1,4.19,4.19,0,0,1,1.8-.36,4.69,4.69,0,0,1,2.17.48A4.35,4.35,0,0,1,530,22a5.8,5.8,0,0,1,.93,2,10.13,10.13,0,0,1,.31,2.6ZM528,26.66a8.58,8.58,0,0,0-.12-1.47,3.92,3.92,0,0,0-.4-1.21,2.39,2.39,0,0,0-.78-.83,2.34,2.34,0,0,0-1.23-.3,2.54,2.54,0,0,0-1.45.37,2.49,2.49,0,0,0-.86,1V29.3a2.45,2.45,0,0,0,.86,1,2.58,2.58,0,0,0,1.47.37,2.27,2.27,0,0,0,1.22-.29,2.16,2.16,0,0,0,.77-.79,3.83,3.83,0,0,0,.4-1.21A8.93,8.93,0,0,0,528,26.9Z"/>
        <path class="cls-2" d="M540.41,33.35a7.12,7.12,0,0,1-2.66-.48,6.37,6.37,0,0,1-2-1.31,5.76,5.76,0,0,1-1.32-1.94,6.41,6.41,0,0,1-.46-2.4v-.47a7.26,7.26,0,0,1,.46-2.65A6.07,6.07,0,0,1,535.66,22a5.65,5.65,0,0,1,1.94-1.35,6.66,6.66,0,0,1,4.89,0,5.15,5.15,0,0,1,1.82,1.27,5.51,5.51,0,0,1,1.13,2,7.93,7.93,0,0,1,.39,2.55v1.38h-8.6a3.55,3.55,0,0,0,.38,1.18,3.26,3.26,0,0,0,.73.92,3.45,3.45,0,0,0,1,.59,3.6,3.6,0,0,0,1.25.21,5.2,5.2,0,0,0,1-.09,4.76,4.76,0,0,0,.91-.27,4.5,4.5,0,0,0,.8-.46,3.29,3.29,0,0,0,.66-.63L545.57,31a4.75,4.75,0,0,1-.79.85,5.68,5.68,0,0,1-1.15.74,7.36,7.36,0,0,1-3.22.72ZM540,22.84a2.53,2.53,0,0,0-1,.19,2.23,2.23,0,0,0-.8.56,3.1,3.1,0,0,0-.58.86,4.68,4.68,0,0,0-.36,1.13h5.35v-.26a3.1,3.1,0,0,0-.2-1,2.37,2.37,0,0,0-.5-.79,2.28,2.28,0,0,0-.81-.53A2.83,2.83,0,0,0,540,22.84Z"/>
        <path class="cls-2" d="M557.77,20.2a8.66,8.66,0,0,1,2.38.32l-.48,3.24a11.37,11.37,0,0,0-1.32-.23,11.6,11.6,0,0,0-1.28-.07,4,4,0,0,0-2.2.52,3.29,3.29,0,0,0-1.24,1.52v7.61h-3.26V20.43h3l.15,2.08a5.85,5.85,0,0,1,1.85-1.7A4.69,4.69,0,0,1,557.77,20.2Z"/>
        <path class="cls-2" d="M567.25,30.5h7.46v2.61H562.8v-2l7.1-8H563V20.43h11.46v2Z"/>
        <path class="cls-2" d="M583.62,33.35a7.08,7.08,0,0,1-2.66-.48,6.27,6.27,0,0,1-2.05-1.31,5.76,5.76,0,0,1-1.32-1.94,6.22,6.22,0,0,1-.46-2.4v-.47a7.26,7.26,0,0,1,.46-2.65A6.21,6.21,0,0,1,578.86,22a5.78,5.78,0,0,1,1.95-1.35,6.15,6.15,0,0,1,2.45-.48,6.24,6.24,0,0,1,2.44.45,5.15,5.15,0,0,1,1.82,1.27,5.66,5.66,0,0,1,1.13,2,7.94,7.94,0,0,1,.38,2.55v1.38h-8.6a3.8,3.8,0,0,0,.38,1.18,3.48,3.48,0,0,0,.74.92,3.21,3.21,0,0,0,1,.59,3.6,3.6,0,0,0,1.25.21,5,5,0,0,0,.95-.09,4.13,4.13,0,0,0,1.72-.73,3.29,3.29,0,0,0,.66-.63L588.78,31a5.14,5.14,0,0,1-.79.85,5.68,5.68,0,0,1-1.15.74,7.36,7.36,0,0,1-3.22.72Zm-.39-10.51a2.51,2.51,0,0,0-1,.19,2.27,2.27,0,0,0-.81.56,3.33,3.33,0,0,0-.58.86,5.16,5.16,0,0,0-.35,1.13h5.35v-.26a3.42,3.42,0,0,0-.2-1A2.32,2.32,0,0,0,584.33,23,2.88,2.88,0,0,0,583.23,22.84Z"/>
        <path class="cls-2" d="M600,31.33a4.81,4.81,0,0,1-1.56,1.49,3.78,3.78,0,0,1-2,.54,5,5,0,0,1-1.81-.31,3.45,3.45,0,0,1-1.4-1,4.55,4.55,0,0,1-.91-1.69,8.14,8.14,0,0,1-.32-2.47v-7.5h3.25V28a6,6,0,0,0,.12,1.3,2.14,2.14,0,0,0,.35.85,1.39,1.39,0,0,0,.65.46,3,3,0,0,0,1,.14,3,3,0,0,0,1.58-.37,2.33,2.33,0,0,0,.93-1v-8.9h3.27V33.11h-3Z"/>
        <path class="cls-2" d="M605.94,26.68A9.16,9.16,0,0,1,606.3,24a6.17,6.17,0,0,1,1-2.05,4.55,4.55,0,0,1,1.61-1.32,4.85,4.85,0,0,1,2.15-.47,4.46,4.46,0,0,1,1.91.37,3.92,3.92,0,0,1,1.36,1.07l.13-1.21h3V32.7A5.59,5.59,0,0,1,617,35a4.68,4.68,0,0,1-1.23,1.7,5.31,5.31,0,0,1-1.9,1,7.81,7.81,0,0,1-2.44.36,6.9,6.9,0,0,1-1.23-.12,7.62,7.62,0,0,1-1.3-.36,6.7,6.7,0,0,1-1.22-.63,4.26,4.26,0,0,1-1-.91l1.46-2a4.23,4.23,0,0,0,1.41,1.07,3.88,3.88,0,0,0,1.7.37,3,3,0,0,0,2.14-.73,2.74,2.74,0,0,0,.76-2.08V32a4.21,4.21,0,0,1-1.34,1,4.27,4.27,0,0,1-1.77.35,4.52,4.52,0,0,1-2.13-.49,4.72,4.72,0,0,1-1.61-1.34,6.17,6.17,0,0,1-1-2,8.75,8.75,0,0,1-.36-2.56Zm3.27.25a6.92,6.92,0,0,0,.16,1.48,3.77,3.77,0,0,0,.49,1.19,2.47,2.47,0,0,0,.83.81,2.42,2.42,0,0,0,1.2.29,2.72,2.72,0,0,0,1.41-.33,2.41,2.41,0,0,0,.88-.91V24.09a2.3,2.3,0,0,0-.88-.92,2.8,2.8,0,0,0-1.39-.32,2.32,2.32,0,0,0-1.2.3,2.5,2.5,0,0,0-.83.82,3.64,3.64,0,0,0-.5,1.22,6.41,6.41,0,0,0-.17,1.49Z"/>
        <path class="cls-2" d="M626.83,33.35a7,7,0,0,1-2.66-.48,6.27,6.27,0,0,1-2-1.31,5.76,5.76,0,0,1-1.32-1.94,6.22,6.22,0,0,1-.46-2.4v-.47a7.48,7.48,0,0,1,.45-2.65A6.23,6.23,0,0,1,622.07,22,5.78,5.78,0,0,1,624,20.68a6.14,6.14,0,0,1,2.44-.48,6.3,6.3,0,0,1,2.45.45,5.11,5.11,0,0,1,1.81,1.27,5.37,5.37,0,0,1,1.13,2,7.93,7.93,0,0,1,.39,2.55v1.38h-8.6A3.55,3.55,0,0,0,624,29a3.15,3.15,0,0,0,1.75,1.51,3.66,3.66,0,0,0,1.26.21,5,5,0,0,0,1-.09,4.13,4.13,0,0,0,1.72-.73,3,3,0,0,0,.65-.63L632,31a4.41,4.41,0,0,1-.79.85,5.17,5.17,0,0,1-1.15.74,7.35,7.35,0,0,1-3.21.72Zm-.39-10.51a2.56,2.56,0,0,0-1,.19,2.32,2.32,0,0,0-.8.56,3.33,3.33,0,0,0-.58.86,4.67,4.67,0,0,0-.35,1.13H629v-.26a2.84,2.84,0,0,0-.2-1,2.09,2.09,0,0,0-.5-.79,2.33,2.33,0,0,0-.8-.53A2.92,2.92,0,0,0,626.44,22.84Z"/>
        <path class="cls-2" d="M638,20.43l.2,1.76a4.82,4.82,0,0,1,1.65-1.47A4.48,4.48,0,0,1,642,20.2a5.2,5.2,0,0,1,1.76.28,3.41,3.41,0,0,1,1.37.9,4.19,4.19,0,0,1,.91,1.58,7.63,7.63,0,0,1,.32,2.35v7.8h-3.26V25.36a3.9,3.9,0,0,0-.17-1.24,1.83,1.83,0,0,0-.49-.77,1.67,1.67,0,0,0-.76-.39,3.86,3.86,0,0,0-1-.11,2.83,2.83,0,0,0-1.41.33,2.62,2.62,0,0,0-.95.92v9h-3.27V20.43Z"/>
      </g>
    </g>
  </g>
</svg>
