<svg xmlns="http://www.w3.org/2000/svg" viewBox="0 0 950 50">
  <defs>
    <style>
      .cls-1 {
        fill: #53bdc2;
      }

      .cls-2 {
        fill: #f6f6f6;
      }
    </style>
  </defs>
  <title>Asset 9</title>
  <g id="Layer_2" data-name="Layer 2">
    <g id="Layer_1-2" data-name="Layer 1">
      <rect class="cls-1" width="950" height="50"/>
      <g>
        <path class="cls-2" d="M240,26.33l1.24-10.28h3l-2.37,17.06h-3L237.34,23l-1.55,10.07h-3l-2.34-17.06h3l1.22,10.21,1.45-10.21h2.35Z"/>
        <path class="cls-2" d="M247.08,20.43H254v10h3.44v2.65H247.08V30.46h3.61V23.09h-3.61Zm3.38-3.24a1.82,1.82,0,0,1,.13-.7,1.64,1.64,0,0,1,.38-.55,2,2,0,0,1,.59-.36,2.39,2.39,0,0,1,.77-.13,1.94,1.94,0,0,1,1.38.49,1.79,1.79,0,0,1,0,2.5,1.93,1.93,0,0,1-1.38.48,2.15,2.15,0,0,1-.77-.13,1.74,1.74,0,0,1-.59-.35,1.68,1.68,0,0,1-.38-.56A1.73,1.73,0,0,1,250.46,17.19Z"/>
        <path class="cls-2" d="M268.8,29.63a1,1,0,0,0-.14-.51,1.27,1.27,0,0,0-.48-.42,4.41,4.41,0,0,0-.92-.36c-.38-.11-.87-.21-1.45-.32a14.48,14.48,0,0,1-2-.56,6.16,6.16,0,0,1-1.58-.81,3.69,3.69,0,0,1-1-1.1,2.78,2.78,0,0,1-.36-1.42,3.14,3.14,0,0,1,.37-1.5,3.79,3.79,0,0,1,1.08-1.26,5.47,5.47,0,0,1,1.71-.85,7.28,7.28,0,0,1,2.27-.32,8.27,8.27,0,0,1,2.38.31,5.62,5.62,0,0,1,1.79.86,3.71,3.71,0,0,1,1.12,1.29,3.46,3.46,0,0,1,.38,1.63h-3.25a1.55,1.55,0,0,0-.6-1.24,2.8,2.8,0,0,0-1.82-.5,3,3,0,0,0-1.71.41,1.21,1.21,0,0,0-.58,1,1.13,1.13,0,0,0,.11.52,1.16,1.16,0,0,0,.42.44,3.49,3.49,0,0,0,.81.35,8.89,8.89,0,0,0,1.32.27,17.57,17.57,0,0,1,2.13.49,6.47,6.47,0,0,1,1.7.75,3.55,3.55,0,0,1,1.12,1.13,2.93,2.93,0,0,1,.4,1.57,3.12,3.12,0,0,1-.4,1.56,3.8,3.8,0,0,1-1.15,1.22,6,6,0,0,1-1.8.8,9,9,0,0,1-2.36.29,7.76,7.76,0,0,1-2.52-.38,6,6,0,0,1-1.84-1,4.13,4.13,0,0,1-1.11-1.38,3.35,3.35,0,0,1-.39-1.54h3.11a1.8,1.8,0,0,0,.28.89,2.25,2.25,0,0,0,.63.6,3,3,0,0,0,.89.33,4.9,4.9,0,0,0,1,.11,3.52,3.52,0,0,0,1.84-.39A1.14,1.14,0,0,0,268.8,29.63Z"/>
        <path class="cls-2" d="M283.2,29.63a1,1,0,0,0-.14-.51,1.2,1.2,0,0,0-.48-.42,4.19,4.19,0,0,0-.92-.36c-.38-.11-.86-.21-1.45-.32a14.48,14.48,0,0,1-2-.56,6.16,6.16,0,0,1-1.58-.81,3.53,3.53,0,0,1-1-1.1,2.69,2.69,0,0,1-.37-1.42,3.14,3.14,0,0,1,.37-1.5,3.79,3.79,0,0,1,1.08-1.26,5.47,5.47,0,0,1,1.71-.85,7.28,7.28,0,0,1,2.27-.32,8.27,8.27,0,0,1,2.38.31,5.52,5.52,0,0,1,1.79.86,3.71,3.71,0,0,1,1.12,1.29,3.47,3.47,0,0,1,.39,1.63h-3.26a1.55,1.55,0,0,0-.6-1.24,2.8,2.8,0,0,0-1.82-.5,3,3,0,0,0-1.71.41,1.21,1.21,0,0,0-.58,1,1.14,1.14,0,0,0,.12.52,1.06,1.06,0,0,0,.41.44,3.4,3.4,0,0,0,.82.35,8.73,8.73,0,0,0,1.31.27,17.57,17.57,0,0,1,2.13.49,6.33,6.33,0,0,1,1.7.75A3.45,3.45,0,0,1,286,27.92a2.93,2.93,0,0,1,.4,1.57,3.12,3.12,0,0,1-.4,1.56,3.7,3.7,0,0,1-1.15,1.22,5.84,5.84,0,0,1-1.8.8,9,9,0,0,1-2.35.29,7.78,7.78,0,0,1-2.53-.38,5.87,5.87,0,0,1-1.83-1,4.16,4.16,0,0,1-1.12-1.38,3.34,3.34,0,0,1-.38-1.54h3.1a1.91,1.91,0,0,0,.28.89,2.16,2.16,0,0,0,.64.6,2.87,2.87,0,0,0,.88.33,5,5,0,0,0,1,.11,3.57,3.57,0,0,0,1.84-.39A1.15,1.15,0,0,0,283.2,29.63Z"/>
        <path class="cls-2" d="M295.57,33.35a7.12,7.12,0,0,1-2.66-.48,6.37,6.37,0,0,1-2.05-1.31,5.6,5.6,0,0,1-1.31-1.94,6.22,6.22,0,0,1-.47-2.4v-.47a7.26,7.26,0,0,1,.46-2.65A6.07,6.07,0,0,1,290.82,22a5.65,5.65,0,0,1,1.94-1.35,6.66,6.66,0,0,1,4.89,0,5.06,5.06,0,0,1,1.82,1.27,5.51,5.51,0,0,1,1.13,2,7.93,7.93,0,0,1,.39,2.55v1.38h-8.6a3.55,3.55,0,0,0,.38,1.18,3.26,3.26,0,0,0,.73.92,3.45,3.45,0,0,0,1,.59,3.6,3.6,0,0,0,1.25.21,5.2,5.2,0,0,0,1-.09,4.13,4.13,0,0,0,1.72-.73,3.24,3.24,0,0,0,.65-.63L300.73,31a4.75,4.75,0,0,1-.79.85,5.42,5.42,0,0,1-1.15.74,7.36,7.36,0,0,1-3.22.72Zm-.38-10.51a2.53,2.53,0,0,0-1,.19,2.32,2.32,0,0,0-.8.56,3.1,3.1,0,0,0-.58.86,4.27,4.27,0,0,0-.35,1.13h5.34v-.26a3.1,3.1,0,0,0-.2-1,2.22,2.22,0,0,0-.5-.79,2.28,2.28,0,0,0-.81-.53A2.83,2.83,0,0,0,295.19,22.84Z"/>
        <path class="cls-2" d="M306.78,20.43l.2,1.76a4.82,4.82,0,0,1,1.65-1.47,4.48,4.48,0,0,1,2.16-.52,5.14,5.14,0,0,1,1.75.28,3.52,3.52,0,0,1,1.38.9,4,4,0,0,1,.9,1.58,7.33,7.33,0,0,1,.32,2.35v7.8h-3.25V25.36a3.9,3.9,0,0,0-.17-1.24,1.93,1.93,0,0,0-.49-.77,1.67,1.67,0,0,0-.76-.39,3.91,3.91,0,0,0-1-.11,2.87,2.87,0,0,0-1.42.33,2.7,2.7,0,0,0-1,.92v9h-3.27V20.43Z"/>
        <path class="cls-2" d="M326.41,29.63a1,1,0,0,0-.14-.51,1.27,1.27,0,0,0-.48-.42,4.41,4.41,0,0,0-.92-.36c-.38-.11-.87-.21-1.45-.32a14.48,14.48,0,0,1-2-.56,6.16,6.16,0,0,1-1.58-.81,3.69,3.69,0,0,1-1-1.1,2.78,2.78,0,0,1-.37-1.42,3.15,3.15,0,0,1,.38-1.5,3.79,3.79,0,0,1,1.08-1.26,5.47,5.47,0,0,1,1.71-.85,7.28,7.28,0,0,1,2.27-.32,8.32,8.32,0,0,1,2.38.31,5.62,5.62,0,0,1,1.79.86,3.71,3.71,0,0,1,1.12,1.29,3.59,3.59,0,0,1,.38,1.63h-3.25a1.55,1.55,0,0,0-.6-1.24,2.82,2.82,0,0,0-1.82-.5,3,3,0,0,0-1.71.41,1.21,1.21,0,0,0-.58,1,1.13,1.13,0,0,0,.11.52,1.16,1.16,0,0,0,.42.44,3.49,3.49,0,0,0,.81.35,8.89,8.89,0,0,0,1.32.27,17.57,17.57,0,0,1,2.13.49,6.47,6.47,0,0,1,1.7.75,3.55,3.55,0,0,1,1.12,1.13,2.93,2.93,0,0,1,.4,1.57,3.12,3.12,0,0,1-.4,1.56A3.8,3.8,0,0,1,328,32.27a6,6,0,0,1-1.8.8,9,9,0,0,1-2.36.29,7.76,7.76,0,0,1-2.52-.38,6,6,0,0,1-1.84-1,4.13,4.13,0,0,1-1.11-1.38,3.35,3.35,0,0,1-.39-1.54h3.11a1.8,1.8,0,0,0,.28.89,2.25,2.25,0,0,0,.63.6,3,3,0,0,0,.89.33,4.9,4.9,0,0,0,1,.11,3.52,3.52,0,0,0,1.84-.39A1.14,1.14,0,0,0,326.41,29.63Z"/>
        <path class="cls-2" d="M340.74,29.14l1.1-8.71h3l-2.27,12.68H339.7L338,25.05l-1.6,8.06h-2.86l-2.28-12.68h3l1.1,8.75,1.6-8.75h2.17Z"/>
        <path class="cls-2" d="M353.18,33.35a7.12,7.12,0,0,1-2.66-.48,6.37,6.37,0,0,1-2-1.31,5.76,5.76,0,0,1-1.32-1.94,6.41,6.41,0,0,1-.46-2.4v-.47a7.26,7.26,0,0,1,.46-2.65A6.07,6.07,0,0,1,348.43,22a5.65,5.65,0,0,1,1.94-1.35,6.66,6.66,0,0,1,4.89,0,5.15,5.15,0,0,1,1.82,1.27,5.51,5.51,0,0,1,1.13,2,7.93,7.93,0,0,1,.39,2.55v1.38H350a3.55,3.55,0,0,0,.38,1.18,3.26,3.26,0,0,0,.73.92,3.45,3.45,0,0,0,1,.59,3.6,3.6,0,0,0,1.25.21,5.2,5.2,0,0,0,1-.09,4.76,4.76,0,0,0,.91-.27,4.59,4.59,0,0,0,.81-.46,3.24,3.24,0,0,0,.65-.63L358.34,31a4.75,4.75,0,0,1-.79.85,5.42,5.42,0,0,1-1.15.74,7.36,7.36,0,0,1-3.22.72Zm-.38-10.51a2.53,2.53,0,0,0-1,.19,2.23,2.23,0,0,0-.8.56,3.1,3.1,0,0,0-.58.86,4.27,4.27,0,0,0-.35,1.13h5.34v-.26a3.1,3.1,0,0,0-.2-1,2.37,2.37,0,0,0-.5-.79,2.28,2.28,0,0,0-.81-.53A2.83,2.83,0,0,0,352.8,22.84Z"/>
        <path class="cls-2" d="M370.54,20.2a8.66,8.66,0,0,1,2.38.32l-.48,3.24a11.37,11.37,0,0,0-1.32-.23,11.6,11.6,0,0,0-1.28-.07,4,4,0,0,0-2.2.52,3.29,3.29,0,0,0-1.24,1.52v7.61h-3.26V20.43h3l.15,2.08a6,6,0,0,1,1.85-1.7A4.69,4.69,0,0,1,370.54,20.2Z"/>
        <path class="cls-2" d="M381.81,17.33v3.1h4.74v2.41h-4.74v5.45a3.75,3.75,0,0,0,.16,1.15,1.93,1.93,0,0,0,.45.74,1.76,1.76,0,0,0,.71.39,3.38,3.38,0,0,0,.93.12,6.74,6.74,0,0,0,.77,0q.39,0,.75-.09l.67-.11.53-.11.32,2.23a3.7,3.7,0,0,1-.8.35,6.88,6.88,0,0,1-1,.24c-.35.06-.7.11-1.07.15s-.74,0-1.1,0a5.91,5.91,0,0,1-1.89-.28,3.68,3.68,0,0,1-1.46-.85,3.9,3.9,0,0,1-.93-1.48,6.24,6.24,0,0,1-.32-2.15V22.84h-2.9V20.43h2.9v-3.1Z"/>
        <path class="cls-2" d="M396.39,33.35a7.08,7.08,0,0,1-2.66-.48,6.27,6.27,0,0,1-2.05-1.31,5.76,5.76,0,0,1-1.32-1.94,6.22,6.22,0,0,1-.46-2.4v-.47a7.26,7.26,0,0,1,.46-2.65A6.21,6.21,0,0,1,391.63,22a5.78,5.78,0,0,1,1.95-1.35A6.15,6.15,0,0,1,396,20.2a6.24,6.24,0,0,1,2.44.45,5.15,5.15,0,0,1,1.82,1.27,5.66,5.66,0,0,1,1.13,2,7.93,7.93,0,0,1,.39,2.55v1.38H393.2a3.8,3.8,0,0,0,.38,1.18,3.48,3.48,0,0,0,.74.92,3.21,3.21,0,0,0,1,.59,3.6,3.6,0,0,0,1.25.21,5.2,5.2,0,0,0,1-.09,4.67,4.67,0,0,0,.9-.27,4.59,4.59,0,0,0,.81-.46,3.29,3.29,0,0,0,.66-.63L401.55,31a5.14,5.14,0,0,1-.79.85,5.68,5.68,0,0,1-1.15.74,7.36,7.36,0,0,1-3.22.72ZM396,22.84a2.51,2.51,0,0,0-1,.19,2.27,2.27,0,0,0-.81.56,3.33,3.33,0,0,0-.58.86,5.16,5.16,0,0,0-.35,1.13h5.35v-.26a3.42,3.42,0,0,0-.2-1A2.32,2.32,0,0,0,397.1,23,2.88,2.88,0,0,0,396,22.84Z"/>
        <path class="cls-2" d="M412.82,29.63a1,1,0,0,0-.13-.51,1.27,1.27,0,0,0-.48-.42,4.41,4.41,0,0,0-.92-.36c-.39-.11-.87-.21-1.46-.32a14.48,14.48,0,0,1-2-.56,6.33,6.33,0,0,1-1.58-.81,3.65,3.65,0,0,1-1-1.1,2.69,2.69,0,0,1-.37-1.42,3.14,3.14,0,0,1,.37-1.5,3.79,3.79,0,0,1,1.08-1.26,5.47,5.47,0,0,1,1.71-.85,7.3,7.3,0,0,1,2.28-.32,8.25,8.25,0,0,1,2.37.31,5.52,5.52,0,0,1,1.79.86,3.71,3.71,0,0,1,1.12,1.29,3.47,3.47,0,0,1,.39,1.63h-3.26a1.55,1.55,0,0,0-.6-1.24,2.79,2.79,0,0,0-1.81-.5,3,3,0,0,0-1.72.41,1.21,1.21,0,0,0-.58,1,1.14,1.14,0,0,0,.12.52,1.06,1.06,0,0,0,.41.44,3.4,3.4,0,0,0,.82.35,8.73,8.73,0,0,0,1.31.27,17.14,17.14,0,0,1,2.13.49,6.33,6.33,0,0,1,1.7.75,3.45,3.45,0,0,1,1.12,1.13,2.93,2.93,0,0,1,.4,1.57,3.12,3.12,0,0,1-.4,1.56,3.7,3.7,0,0,1-1.15,1.22,5.74,5.74,0,0,1-1.8.8,9,9,0,0,1-2.35.29,7.78,7.78,0,0,1-2.53-.38,5.87,5.87,0,0,1-1.83-1,4.16,4.16,0,0,1-1.12-1.38,3.47,3.47,0,0,1-.38-1.54h3.1a1.81,1.81,0,0,0,.29.89,2,2,0,0,0,.63.6,3,3,0,0,0,.88.33,5,5,0,0,0,1,.11,3.55,3.55,0,0,0,1.84-.39A1.15,1.15,0,0,0,412.82,29.63Z"/>
        <path class="cls-2" d="M437.63,30.5h7.46v2.61H433.18v-2l7.1-8h-6.94V20.43H444.8v2Z"/>
        <path class="cls-2" d="M455.93,31.33a4.88,4.88,0,0,1-1.55,1.49,3.84,3.84,0,0,1-2,.54,5,5,0,0,1-1.8-.31,3.42,3.42,0,0,1-1.41-1,4.7,4.7,0,0,1-.91-1.69,8.46,8.46,0,0,1-.32-2.47v-7.5h3.26V28a6.78,6.78,0,0,0,.11,1.3,2.3,2.3,0,0,0,.36.85,1.36,1.36,0,0,0,.64.46,3.08,3.08,0,0,0,1,.14,3,3,0,0,0,1.58-.37,2.37,2.37,0,0,0,.92-1v-8.9h3.27V33.11h-2.95Z"/>
        <path class="cls-2" d="M464.28,20.43l.09,1.54a3.22,3.22,0,0,1,1-1.3,2.6,2.6,0,0,1,1.56-.47,1.91,1.91,0,0,1,2,1.35,2.91,2.91,0,0,1,.95-1,2.63,2.63,0,0,1,1.4-.36,2.77,2.77,0,0,1,1.08.21,2.22,2.22,0,0,1,.86.67,3.36,3.36,0,0,1,.58,1.2,6.6,6.6,0,0,1,.2,1.79v9h-3V24.05a1.91,1.91,0,0,0-.08-.59,1,1,0,0,0-.2-.37.8.8,0,0,0-.3-.19,1.34,1.34,0,0,0-.35,0,1,1,0,0,0-.57.16.93.93,0,0,0-.36.42v9.68H466.3V24a1.94,1.94,0,0,0-.07-.59.86.86,0,0,0-.19-.37.79.79,0,0,0-.29-.18,1.29,1.29,0,0,0-.35,0,.84.84,0,0,0-.6.21,1.51,1.51,0,0,0-.36.56v9.49h-3V20.43Z"/>
        <path class="cls-2" d="M502.78,27.77a6.53,6.53,0,0,1-.55,2.32A5.52,5.52,0,0,1,501,31.85a5.62,5.62,0,0,1-1.9,1.12,7.3,7.3,0,0,1-2.44.39,6.17,6.17,0,0,1-2.68-.56,5.46,5.46,0,0,1-2-1.56,7.06,7.06,0,0,1-1.22-2.4,10.81,10.81,0,0,1-.42-3.1V23.45a10.48,10.48,0,0,1,.44-3.11A7.18,7.18,0,0,1,492,17.93a5.68,5.68,0,0,1,2-1.57,6.06,6.06,0,0,1,2.62-.56,7.47,7.47,0,0,1,2.51.4A5.43,5.43,0,0,1,501,17.34a5.19,5.19,0,0,1,1.21,1.8,8.11,8.11,0,0,1,.57,2.41h-3.28a6.11,6.11,0,0,0-.23-1.34,2.5,2.5,0,0,0-.53-.95,2.12,2.12,0,0,0-.87-.58,3.57,3.57,0,0,0-1.25-.19,2.56,2.56,0,0,0-1.32.33,2.53,2.53,0,0,0-.93,1,4.86,4.86,0,0,0-.55,1.55,11.86,11.86,0,0,0-.17,2.09v2.32a7.53,7.53,0,0,0,.71,3.73,2.42,2.42,0,0,0,2.24,1.21,2.9,2.9,0,0,0,2-.69,3.11,3.11,0,0,0,.83-2.22Z"/>
        <path class="cls-2" d="M513.38,33.11a2.26,2.26,0,0,1-.2-.54,5.51,5.51,0,0,1-.14-.64,4.13,4.13,0,0,1-.62.55,5,5,0,0,1-.78.45,5,5,0,0,1-.95.31,5.49,5.49,0,0,1-1.11.11,5.69,5.69,0,0,1-1.79-.28,4.25,4.25,0,0,1-1.4-.79,3.55,3.55,0,0,1-1.24-2.72,3.62,3.62,0,0,1,1.5-3.1,7.49,7.49,0,0,1,4.45-1.09h1.82v-.75a1.85,1.85,0,0,0-.6-1.45,2.46,2.46,0,0,0-1.72-.53,2.09,2.09,0,0,0-1.45.42,1.49,1.49,0,0,0-.46,1.15h-3.26a3.45,3.45,0,0,1,.36-1.54,3.94,3.94,0,0,1,1-1.28,5.55,5.55,0,0,1,1.68-.87,7.5,7.5,0,0,1,2.27-.32,7.74,7.74,0,0,1,2.14.28,5.24,5.24,0,0,1,1.71.83,3.76,3.76,0,0,1,1.14,1.39,4.43,4.43,0,0,1,.41,1.94v5.44a8.85,8.85,0,0,0,.13,1.69,4.24,4.24,0,0,0,.37,1.14v.2Zm-3.11-2.28a3.36,3.36,0,0,0,.92-.12,4,4,0,0,0,.76-.3,2.65,2.65,0,0,0,.58-.43,1.91,1.91,0,0,0,.39-.49V27.31h-1.66a4.89,4.89,0,0,0-1.3.15,2.4,2.4,0,0,0-.88.41,1.69,1.69,0,0,0-.51.63,2,2,0,0,0-.16.8,1.41,1.41,0,0,0,.46,1.09A2,2,0,0,0,510.27,30.83Z"/>
        <path class="cls-2" d="M520.54,15.11h7.09V30.46h3.63v2.65H520.54V30.46h3.8V17.77h-3.8Z"/>
        <path class="cls-2" d="M534.94,15.11H542V30.46h3.63v2.65H534.94V30.46h3.8V17.77h-3.8Z"/>
        <path class="cls-2" d="M549.53,20.43h6.9v10h3.44v2.65H549.53V30.46h3.61V23.09h-3.61Zm3.38-3.24a1.82,1.82,0,0,1,.13-.7,1.64,1.64,0,0,1,.38-.55,2,2,0,0,1,.59-.36,2.34,2.34,0,0,1,.77-.13,1.94,1.94,0,0,1,1.38.49,1.79,1.79,0,0,1,0,2.5,1.93,1.93,0,0,1-1.38.48,2.11,2.11,0,0,1-.77-.13,1.74,1.74,0,0,1-.59-.35,1.68,1.68,0,0,1-.38-.56A1.73,1.73,0,0,1,552.91,17.19Z"/>
        <path class="cls-2" d="M562.62,26.66a7.77,7.77,0,0,1,.4-2.56,5.69,5.69,0,0,1,1.17-2.05,5.34,5.34,0,0,1,1.87-1.36,6.83,6.83,0,0,1,5.08,0A5.38,5.38,0,0,1,573,22.05a6,6,0,0,1,1.17,2.05,8,8,0,0,1,.4,2.56v.24a8.1,8.1,0,0,1-.4,2.57A6.15,6.15,0,0,1,573,31.52a5.23,5.23,0,0,1-1.88,1.35,6.14,6.14,0,0,1-2.53.49,6.27,6.27,0,0,1-2.55-.49,5.23,5.23,0,0,1-1.88-1.35A5.69,5.69,0,0,1,563,29.47a7.83,7.83,0,0,1-.4-2.57Zm3.26.24a7.2,7.2,0,0,0,.15,1.5,3.8,3.8,0,0,0,.48,1.22,2.47,2.47,0,0,0,.85.82,2.5,2.5,0,0,0,1.26.31,2.39,2.39,0,0,0,1.23-.31,2.53,2.53,0,0,0,.84-.82,4,4,0,0,0,.47-1.22,6.57,6.57,0,0,0,.16-1.5v-.24a6.31,6.31,0,0,0-.16-1.47,4,4,0,0,0-.47-1.22,2.47,2.47,0,0,0-.84-.83,2.44,2.44,0,0,0-1.25-.3A2.3,2.3,0,0,0,566.51,24a3.8,3.8,0,0,0-.48,1.22,6.91,6.91,0,0,0-.15,1.47Z"/>
        <path class="cls-2" d="M588.86,26.89a10,10,0,0,1-.32,2.57,6.2,6.2,0,0,1-.95,2,4.38,4.38,0,0,1-3.68,1.85,4.36,4.36,0,0,1-1.79-.35,4.25,4.25,0,0,1-1.35-1v6h-3.25V20.43h3l.11,1.25A4.06,4.06,0,0,1,582,20.59a4.18,4.18,0,0,1,1.86-.39,4.67,4.67,0,0,1,2.13.46A4.38,4.38,0,0,1,587.58,22a6.21,6.21,0,0,1,1,2,10.3,10.3,0,0,1,.32,2.63Zm-3.26-.25a7.1,7.1,0,0,0-.15-1.49,3.85,3.85,0,0,0-.45-1.21,2.45,2.45,0,0,0-.8-.8,2.29,2.29,0,0,0-1.18-.29,2.69,2.69,0,0,0-1.4.33,2.31,2.31,0,0,0-.85.95v5.29a2.31,2.31,0,0,0,2.28,1.31,2.17,2.17,0,0,0,1.17-.3,2.36,2.36,0,0,0,.8-.83,4,4,0,0,0,.44-1.23,7.75,7.75,0,0,0,.14-1.48Z"/>
        <path class="cls-2" d="M598,33.35a7.12,7.12,0,0,1-2.66-.48,6.37,6.37,0,0,1-2.05-1.31A5.76,5.76,0,0,1,592,29.62a6.41,6.41,0,0,1-.46-2.4v-.47A7.26,7.26,0,0,1,592,24.1,6.07,6.07,0,0,1,593.27,22a5.65,5.65,0,0,1,1.94-1.35,6.66,6.66,0,0,1,4.89,0,5.15,5.15,0,0,1,1.82,1.27,5.51,5.51,0,0,1,1.13,2,7.93,7.93,0,0,1,.39,2.55v1.38h-8.6a3.34,3.34,0,0,0,.38,1.18,3.26,3.26,0,0,0,.73.92,3.45,3.45,0,0,0,1,.59,3.6,3.6,0,0,0,1.25.21,5.2,5.2,0,0,0,1-.09,4.76,4.76,0,0,0,.91-.27,4.88,4.88,0,0,0,.8-.46,3.29,3.29,0,0,0,.66-.63L603.18,31a4.75,4.75,0,0,1-.79.85,5.68,5.68,0,0,1-1.15.74,7.36,7.36,0,0,1-3.22.72Zm-.38-10.51a2.53,2.53,0,0,0-1,.19,2.23,2.23,0,0,0-.8.56,3.1,3.1,0,0,0-.58.86,4.68,4.68,0,0,0-.36,1.13h5.35v-.26a3.1,3.1,0,0,0-.2-1,2.24,2.24,0,0,0-.51-.79,2.16,2.16,0,0,0-.8-.53A2.83,2.83,0,0,0,597.64,22.84Z"/>
        <path class="cls-2" d="M617.69,26.9h-9.76V24.27h9.76Z"/>
        <path class="cls-2" d="M624.06,26.86v6.25h-3.29V16.05h5.83a7.4,7.4,0,0,1,2.52.41A5.53,5.53,0,0,1,631,17.58a4.94,4.94,0,0,1,1.22,1.73,5.77,5.77,0,0,1,.43,2.24,5.32,5.32,0,0,1-.43,2.12A4.85,4.85,0,0,1,631,25.35a5.84,5.84,0,0,1-1.92,1.11,7.66,7.66,0,0,1-2.52.4Zm0-2.68h2.54a3.21,3.21,0,0,0,1.22-.21,2.53,2.53,0,0,0,.87-.57,2.26,2.26,0,0,0,.51-.84,3,3,0,0,0,.17-1,3.59,3.59,0,0,0-.17-1.11A2.32,2.32,0,0,0,627.82,19a3,3,0,0,0-1.22-.23h-2.54Z"/>
        <path class="cls-2" d="M644.18,20.2a8.32,8.32,0,0,1,1.37.1,8,8,0,0,1,1,.22l-.48,3.24a11.13,11.13,0,0,0-2.6-.3,4.07,4.07,0,0,0-2.2.52,3.21,3.21,0,0,0-1.23,1.52v7.61h-3.26V20.43h3l.16,2.08a5.75,5.75,0,0,1,1.85-1.7A4.65,4.65,0,0,1,644.18,20.2Z"/>
        <path class="cls-2" d="M649,26.66a8,8,0,0,1,.4-2.56,6,6,0,0,1,1.17-2.05,5.44,5.44,0,0,1,1.87-1.36,6.83,6.83,0,0,1,5.08,0,5.42,5.42,0,0,1,1.89,1.36,5.82,5.82,0,0,1,1.16,2.05,7.77,7.77,0,0,1,.4,2.56v.24a7.83,7.83,0,0,1-.4,2.57,5.82,5.82,0,0,1-1.16,2.05,5.2,5.2,0,0,1-1.87,1.35,6.83,6.83,0,0,1-5.08,0,5.19,5.19,0,0,1-1.89-1.35,6,6,0,0,1-1.17-2.05,8.1,8.1,0,0,1-.4-2.57Zm3.26.24a7.2,7.2,0,0,0,.15,1.5,4,4,0,0,0,.49,1.22,2.44,2.44,0,0,0,.84.82,2.5,2.5,0,0,0,1.26.31,2.45,2.45,0,0,0,1.24-.31,2.41,2.41,0,0,0,.83-.82,3.8,3.8,0,0,0,.48-1.22,7.2,7.2,0,0,0,.15-1.5v-.24a6.91,6.91,0,0,0-.15-1.47A3.8,3.8,0,0,0,657.1,24a2.36,2.36,0,0,0-.83-.83,2.5,2.5,0,0,0-1.26-.3,2.42,2.42,0,0,0-1.24.3,2.38,2.38,0,0,0-.84.83,4,4,0,0,0-.49,1.22,6.91,6.91,0,0,0-.15,1.47Z"/>
        <path class="cls-2" d="M665.83,20.43h6.49v13a5.91,5.91,0,0,1-.36,2.17,3.82,3.82,0,0,1-1.06,1.5,4.31,4.31,0,0,1-1.69.87,8.25,8.25,0,0,1-2.27.28c-.35,0-.71,0-1.07,0a6.91,6.91,0,0,1-1-.15l.17-2.65.39.06.52,0,.5,0h.36a3.6,3.6,0,0,0,.88-.11,1.86,1.86,0,0,0,.72-.35,1.68,1.68,0,0,0,.47-.65,2.5,2.5,0,0,0,.18-1V23.09h-3.2Zm3-3.24a1.82,1.82,0,0,1,.14-.7,1.62,1.62,0,0,1,.37-.55,1.83,1.83,0,0,1,.59-.36,2.34,2.34,0,0,1,.77-.13,1.91,1.91,0,0,1,1.37.49,1.79,1.79,0,0,1,0,2.5,1.91,1.91,0,0,1-1.37.48,2.11,2.11,0,0,1-.77-.13,1.52,1.52,0,0,1-1-.91A1.74,1.74,0,0,1,668.8,17.19Z"/>
        <path class="cls-2" d="M684.44,33.35a7,7,0,0,1-2.66-.48,6.27,6.27,0,0,1-2-1.31,5.76,5.76,0,0,1-1.32-1.94,6.22,6.22,0,0,1-.47-2.4v-.47a7.48,7.48,0,0,1,.46-2.65A6.23,6.23,0,0,1,679.68,22a5.74,5.74,0,0,1,1.94-1.35,6.19,6.19,0,0,1,2.45-.48,6.3,6.3,0,0,1,2.45.45,5.11,5.11,0,0,1,1.81,1.27,5.37,5.37,0,0,1,1.13,2,7.93,7.93,0,0,1,.39,2.55v1.38h-8.6a3.55,3.55,0,0,0,.38,1.18,3.15,3.15,0,0,0,1.75,1.51,3.66,3.66,0,0,0,1.26.21,5.09,5.09,0,0,0,1-.09,4.13,4.13,0,0,0,1.72-.73,3,3,0,0,0,.65-.63L689.59,31a4.41,4.41,0,0,1-.79.85,5.17,5.17,0,0,1-1.15.74,7.35,7.35,0,0,1-3.21.72Zm-.39-10.51a2.56,2.56,0,0,0-1,.19,2.32,2.32,0,0,0-.8.56,3.33,3.33,0,0,0-.58.86,4.67,4.67,0,0,0-.35,1.13h5.34v-.26a2.84,2.84,0,0,0-.2-1,2.09,2.09,0,0,0-.5-.79,2.33,2.33,0,0,0-.8-.53A2.92,2.92,0,0,0,684.05,22.84Z"/>
        <path class="cls-2" d="M697.46,27.88,696,29.25v3.86h-3.26v-18H696V25.4l1-1.12,3.51-3.85h3.91l-4.78,5.29,5.45,7.39h-4Z"/>
        <path class="cls-2" d="M713.07,17.33v3.1h4.73v2.41h-4.73v5.45a3.77,3.77,0,0,0,.15,1.15,1.83,1.83,0,0,0,.46.74,1.72,1.72,0,0,0,.7.39,3.4,3.4,0,0,0,.94.12,6.56,6.56,0,0,0,.76,0q.4,0,.75-.09l.67-.11c.21,0,.39-.07.53-.11l.32,2.23a3.7,3.7,0,0,1-.8.35,6.55,6.55,0,0,1-1,.24c-.34.06-.7.11-1.07.15s-.74,0-1.1,0a6,6,0,0,1-1.89-.28,3.57,3.57,0,0,1-1.45-.85,3.78,3.78,0,0,1-.93-1.48,6.23,6.23,0,0,1-.33-2.15V22.84h-2.9V20.43h2.9v-3.1Z"/>
      </g>
    </g>
  </g>
</svg>
