<svg xmlns="http://www.w3.org/2000/svg" viewBox="0 0 640 400"><defs><style>.cls-1{fill:#3fc863;}.cls-2{fill:#fff;}.cls-3{fill:none;stroke:#fff;stroke-linecap:round;stroke-miterlimit:10;stroke-width:4px;}</style></defs><title>Asset 4kollegen</title><g id="Layer_2" data-name="Layer 2"><g id="Layer_1-2" data-name="Layer 1"><rect class="cls-1" width="640" height="400"/><circle class="cls-2" cx="320" cy="200" r="90"/><circle class="cls-2" cx="88" cy="94.41" r="42.48"/><circle class="cls-2" cx="526.36" cy="87.76" r="42.48"/><path class="cls-1" d="M320.45,168.18a28.65,28.65,0,0,0-17.68,51.19v15a17.69,17.69,0,1,0,35.37,0v-15a28.65,28.65,0,0,0-17.69-51.19Zm13.84,52.38V223H306.62v-2.39Zm-27.67,6.24h27.67v1.79H306.62Zm13.83,21.43a13.85,13.85,0,0,1-13.83-13.84v-1.95h27.67v1.95A13.86,13.86,0,0,1,320.45,248.23Zm14.82-31.52H321.46L326,202.49a1.93,1.93,0,0,0-2-2.5l-8.16.67L322,192a1.93,1.93,0,0,0-3.14-2.24l-8.61,12.09a1.93,1.93,0,0,0,1.73,3l9.43-.78-4,12.65H305.63a24.8,24.8,0,1,1,29.64,0Z"/><path class="cls-1" d="M286.86,193.54H276.38a1.93,1.93,0,0,0,0,3.85h10.48a1.93,1.93,0,1,0,0-3.85Z"/><path class="cls-1" d="M363.62,193.54H353.14a1.93,1.93,0,1,0,0,3.85h10.48a1.93,1.93,0,0,0,0-3.85Z"/><path class="cls-1" d="M295.2,173.39a1.93,1.93,0,0,0,2.73-2.72l-7.41-7.41A1.92,1.92,0,1,0,287.8,166Z"/><path class="cls-1" d="M343.43,174a1.92,1.92,0,0,0,1.37-.57l7.4-7.41a1.92,1.92,0,1,0-2.72-2.72l-7.41,7.41a1.93,1.93,0,0,0,1.36,3.29Z"/><path class="cls-1" d="M320,164.25a1.93,1.93,0,0,0,1.93-1.93V151.85a1.93,1.93,0,0,0-3.86,0v10.47A1.93,1.93,0,0,0,320,164.25Z"/><circle class="cls-2" cx="117.29" cy="309.19" r="42.48"/><circle class="cls-2" cx="503.23" cy="311.1" r="42.48"/><line class="cls-3" x1="156.12" y1="130.24" x2="206.15" y2="149.92"/><line class="cls-3" x1="426.02" y1="153.5" x2="466.96" y2="127.26"/><line class="cls-3" x1="414.65" y1="259.75" x2="446.49" y2="274.45"/><line class="cls-3" x1="186.26" y1="278.02" x2="213.94" y2="259.99"/><path class="cls-1" d="M85,101.73c0-1.25,0-2.31.1-3.18a9.16,9.16,0,0,1,.45-2.35,6.3,6.3,0,0,1,1.06-1.93,12.58,12.58,0,0,1,2-1.88c.61-.56,1.23-1.16,1.85-1.78a21.13,21.13,0,0,0,1.67-1.93,10.33,10.33,0,0,0,1.2-2,5,5,0,0,0,.47-2.07A4.51,4.51,0,0,0,92.39,81a5.8,5.8,0,0,0-3.88-1.14,7.14,7.14,0,0,0-1.9.26,4.54,4.54,0,0,0-1.64.83,4.34,4.34,0,0,0-1.17,1.46,5,5,0,0,0-.48,2.15H75.75a11.11,11.11,0,0,1,1-4.82,9.7,9.7,0,0,1,2.72-3.41,11.57,11.57,0,0,1,4-2,18.15,18.15,0,0,1,5-.67,20,20,0,0,1,5.41.68,11.15,11.15,0,0,1,4,2,8.9,8.9,0,0,1,2.51,3.33,11.32,11.32,0,0,1,.87,4.59,9.27,9.27,0,0,1-.65,3.52,13.57,13.57,0,0,1-1.69,3,19.65,19.65,0,0,1-2.35,2.6c-.87.83-1.76,1.63-2.64,2.41a12.32,12.32,0,0,0-1.28,1.44,4.07,4.07,0,0,0-.66,1.27,5.76,5.76,0,0,0-.26,1.43q-.06.78-.06,1.86ZM83.84,110a4.55,4.55,0,0,1,.3-1.67,3.83,3.83,0,0,1,.87-1.35,3.93,3.93,0,0,1,1.38-.88,5.62,5.62,0,0,1,3.68,0,3.93,3.93,0,0,1,1.4.88,3.85,3.85,0,0,1,.88,1.35,4.36,4.36,0,0,1,.32,1.67,4.23,4.23,0,0,1-.32,1.63,3.65,3.65,0,0,1-.88,1.3,4.19,4.19,0,0,1-1.4.86,5.62,5.62,0,0,1-3.68,0,4.2,4.2,0,0,1-1.38-.86,3.63,3.63,0,0,1-.87-1.3A4.41,4.41,0,0,1,83.84,110Z"/><path class="cls-1" d="M498.42,327.12a4.49,4.49,0,0,1,.3-1.66,3.84,3.84,0,0,1,.87-1.33,3.89,3.89,0,0,1,1.39-.88,5.39,5.39,0,0,1,3.66,0,3.89,3.89,0,0,1,1.39.88,4,4,0,0,1,.88,1.33,4.3,4.3,0,0,1,.31,1.66,4.22,4.22,0,0,1-.31,1.63,3.79,3.79,0,0,1-.88,1.3,4,4,0,0,1-1.39.85,5.39,5.39,0,0,1-3.66,0,4,4,0,0,1-1.39-.85,3.63,3.63,0,0,1-.87-1.3A4.41,4.41,0,0,1,498.42,327.12ZM506.27,317H499.4L499,291.27h7.74Z"/><g id="smile"><path class="cls-1" d="M100.35,330.4a3.1,3.1,0,0,1-3-2.82L94.4,296.52a3.12,3.12,0,0,1,2.81-3.39l36.68-3.43a3.1,3.1,0,0,1,3.38,2.8l2.91,31.07a3.1,3.1,0,0,1-2.8,3.38l-36.68,3.44Zm33.84-38.47h-.09l-36.68,3.43a.88.88,0,0,0-.78.94l2.92,31.06a.86.86,0,0,0,.93.78l36.68-3.44a.84.84,0,0,0,.58-.31.85.85,0,0,0,.19-.62L135,292.71a.87.87,0,0,0-.84-.78Z"/><circle class="cls-1" cx="109.31" cy="306.01" r="1.5"/><circle class="cls-1" cx="124.39" cy="304.59" r="1.5"/><path class="cls-1" d="M117.24,318a8.12,8.12,0,0,1-6.69-3.6,1.12,1.12,0,0,1,.31-1.56,1.14,1.14,0,0,1,1.56.31,6.11,6.11,0,0,0,10.73-1.38,1.12,1.12,0,0,1,1.43-.7,1.14,1.14,0,0,1,.7,1.44,8.21,8.21,0,0,1-6.79,5.42A7.55,7.55,0,0,1,117.24,318Z"/></g><path class="cls-1" d="M540.88,74.81c-.34-.39-.66-.74-1-1.07-1.73-1.89-3-3.25-4.77-11.48-.77-3.54-3-3.92-4-3.93-2.51,0-5.21,2.41-5.81,5.16-.89,4.05,1.29,9.66,2.52,12.36l-14.55.67a5.19,5.19,0,0,0-2.77,9.42,5.15,5.15,0,0,0,.91,8.51,5.15,5.15,0,0,0-1.4,3.78,5.2,5.2,0,0,0,4.45,4.9,5.11,5.11,0,0,0-.87,3.1,5.2,5.2,0,0,0,5.44,5l3.13-.14,3.33-.16,9.05-.41a10.22,10.22,0,0,0,9.71-10.66l-.74-16C543.44,80.77,543,77.32,540.88,74.81Zm1.19,25.11a8,8,0,0,1-7.57,8.31l-9,.42-3.33.15-3.13.14a3,3,0,1,1-.27-5.9l6.46-.3a1.13,1.13,0,0,0-.1-2.25l-6.46.3-3.2.15a3,3,0,0,1-.27-5.91l9.65-.44a1.13,1.13,0,0,0,1.07-1.18,1.11,1.11,0,0,0-1.17-1.07l-9.66.45-1,0a3,3,0,0,1-.28-5.9h0l10.6-.49a1.12,1.12,0,1,0-.11-2.24l-10.6.49a3,3,0,1,1-.27-5.91L529.7,78h0a1,1,0,0,0,.22-.05,1.29,1.29,0,0,0,.21-.06h0a.76.76,0,0,0,.14-.11,1.3,1.3,0,0,0,.18-.15,2,2,0,0,0,.12-.19c0-.06.07-.12.1-.19a2,2,0,0,0,0-.24c0-.06,0-.11,0-.17v0c0-.07,0-.14-.06-.22a1.66,1.66,0,0,0-.06-.21s0,0,0,0-4.09-7.8-3.08-12.4c.37-1.68,2.22-3.38,3.62-3.39.86,0,1.45.73,1.76,2.16,1.92,8.82,3.42,10.45,5.31,12.52.29.31.6.64.91,1,1.7,2,2.05,5,2.17,7.64Z"/></g></g></svg>