<svg xmlns="http://www.w3.org/2000/svg" viewBox="0 0 950 50">
  <defs>
    <style>
      .cls-1 {
        fill: #f7c425;
      }

      .cls-2 {
        fill: #fff;
      }
    </style>
  </defs>
  <title>Asset 7</title>
  <g id="Layer_2" data-name="Layer 2">
    <g id="Layer_1-2" data-name="Layer 1">
      <rect class="cls-1" width="950" height="50"/>
      <g>
        <path class="cls-2" d="M319.3,31.55h-5.12l-1,3.56H309.7l5.59-17.06h3l5.48,17.06H320.3ZM315,28.75h3.54l-1.75-6.28Z"/>
        <path class="cls-2" d="M326.11,17.11h7.09V32.46h3.63v2.65H326.11V32.46h3.79V19.77h-3.79Z"/>
        <path class="cls-2" d="M340.51,17.11h7.09V32.46h3.63v2.65H340.51V32.46h3.8V19.77h-3.8Z"/>
        <path class="cls-2" d="M360.39,35.35a7,7,0,0,1-2.66-.48,6.31,6.31,0,0,1-2.06-1.31,5.6,5.6,0,0,1-1.31-1.94,6.22,6.22,0,0,1-.47-2.4v-.47a7.48,7.48,0,0,1,.46-2.65A6,6,0,0,1,355.63,24a5.65,5.65,0,0,1,1.94-1.35A6.19,6.19,0,0,1,360,22.2a6.3,6.3,0,0,1,2.45.45,5,5,0,0,1,1.81,1.27,5.51,5.51,0,0,1,1.13,2,7.93,7.93,0,0,1,.39,2.55v1.38h-8.6a3.55,3.55,0,0,0,.38,1.18,3.26,3.26,0,0,0,.73.92,3.45,3.45,0,0,0,1,.59,3.6,3.6,0,0,0,1.25.21,5.2,5.2,0,0,0,1-.09,4.13,4.13,0,0,0,1.72-.73,3,3,0,0,0,.65-.63L365.54,33a4.75,4.75,0,0,1-.79.85,5.42,5.42,0,0,1-1.15.74,7.35,7.35,0,0,1-3.21.72ZM360,24.84a2.56,2.56,0,0,0-1,.19,2.32,2.32,0,0,0-.8.56,3.1,3.1,0,0,0-.58.86,4.27,4.27,0,0,0-.35,1.13h5.34v-.26a3.1,3.1,0,0,0-.2-1,2.22,2.22,0,0,0-.5-.79,2.28,2.28,0,0,0-.81-.53A2.83,2.83,0,0,0,360,24.84Z"/>
        <path class="cls-2" d="M376.81,31.63a1,1,0,0,0-.13-.51,1.27,1.27,0,0,0-.48-.42,4.41,4.41,0,0,0-.92-.36,13.78,13.78,0,0,0-1.45-.32,14.64,14.64,0,0,1-2-.56,6.09,6.09,0,0,1-1.57-.81,3.69,3.69,0,0,1-1-1.1,2.79,2.79,0,0,1-.37-1.43,3.21,3.21,0,0,1,.38-1.5,3.86,3.86,0,0,1,1.08-1.25,5.26,5.26,0,0,1,1.71-.85,7.28,7.28,0,0,1,2.27-.32,8.32,8.32,0,0,1,2.38.31,5.62,5.62,0,0,1,1.79.86,3.82,3.82,0,0,1,1.12,1.29,3.59,3.59,0,0,1,.38,1.63h-3.26a1.54,1.54,0,0,0-.59-1.24,2.82,2.82,0,0,0-1.82-.5,3,3,0,0,0-1.72.41,1.23,1.23,0,0,0-.58,1,1.14,1.14,0,0,0,.12.52,1.16,1.16,0,0,0,.42.44,3.49,3.49,0,0,0,.81.35,8.73,8.73,0,0,0,1.31.27,17.32,17.32,0,0,1,2.14.49,6.47,6.47,0,0,1,1.7.75,3.42,3.42,0,0,1,1.11,1.13,2.94,2.94,0,0,1,.41,1.57,3.07,3.07,0,0,1-.41,1.55,3.6,3.6,0,0,1-1.14,1.23,6,6,0,0,1-1.8.8,9.08,9.08,0,0,1-2.36.29,7.76,7.76,0,0,1-2.52-.38,5.93,5.93,0,0,1-1.84-1,4.29,4.29,0,0,1-1.12-1.38,3.47,3.47,0,0,1-.38-1.54h3.11a1.8,1.8,0,0,0,.28.89,2,2,0,0,0,.63.6,2.94,2.94,0,0,0,.89.33,4.9,4.9,0,0,0,1,.11,3.52,3.52,0,0,0,1.84-.39A1.15,1.15,0,0,0,376.81,31.63Z"/>
        <path class="cls-2" d="M401.62,32.5h7.47v2.61H397.17v-2l7.1-8h-6.94V22.43H408.8v2Z"/>
        <path class="cls-2" d="M419.93,33.33a5,5,0,0,1-1.55,1.49,3.84,3.84,0,0,1-2,.54,5,5,0,0,1-1.81-.31,3.45,3.45,0,0,1-1.4-1,4.55,4.55,0,0,1-.91-1.69,8.46,8.46,0,0,1-.32-2.47v-7.5h3.26V30a6.06,6.06,0,0,0,.11,1.3,2.14,2.14,0,0,0,.35.85,1.39,1.39,0,0,0,.65.46,3,3,0,0,0,1,.14,3,3,0,0,0,1.58-.37,2.33,2.33,0,0,0,.93-1v-8.9h3.27V35.11h-2.95Z"/>
        <path class="cls-2" d="M428.27,22.43l.1,1.54a3.13,3.13,0,0,1,1-1.3,2.55,2.55,0,0,1,1.55-.47,1.91,1.91,0,0,1,2,1.35,2.69,2.69,0,0,1,1-1,2.6,2.6,0,0,1,1.4-.36,2.72,2.72,0,0,1,1.07.21,2.32,2.32,0,0,1,.87.67,3.19,3.19,0,0,1,.57,1.2,6.56,6.56,0,0,1,.21,1.79v9h-3V26.05a1.94,1.94,0,0,0-.07-.59.88.88,0,0,0-.21-.37.67.67,0,0,0-.3-.19,1.27,1.27,0,0,0-.34,0,1,1,0,0,0-.58.16,1.06,1.06,0,0,0-.36.42v9.68H430.3V26a1.94,1.94,0,0,0-.07-.59,1,1,0,0,0-.19-.37.88.88,0,0,0-.29-.18,1.34,1.34,0,0,0-.35,0,.89.89,0,0,0-.61.21,1.38,1.38,0,0,0-.35.56v9.49h-3V22.43Z"/>
        <path class="cls-2" d="M466.78,29.77a6.33,6.33,0,0,1-.56,2.32A5.37,5.37,0,0,1,465,33.85a5.53,5.53,0,0,1-1.9,1.12,7.2,7.2,0,0,1-2.43.39,6.22,6.22,0,0,1-2.69-.56,5.46,5.46,0,0,1-2-1.56,7.24,7.24,0,0,1-1.22-2.4,10.81,10.81,0,0,1-.42-3.1V25.45a10.16,10.16,0,0,1,.45-3.11A7.17,7.17,0,0,1,456,19.93a5.62,5.62,0,0,1,2-1.57,6,6,0,0,1,2.62-.56,7.41,7.41,0,0,1,2.5.4A5.43,5.43,0,0,1,465,19.34a5.21,5.21,0,0,1,1.22,1.8,8.11,8.11,0,0,1,.56,2.41h-3.28a5.57,5.57,0,0,0-.23-1.34,2.5,2.5,0,0,0-.53-.95,2.15,2.15,0,0,0-.86-.58,3.61,3.61,0,0,0-1.25-.19,2.6,2.6,0,0,0-1.33.33,2.68,2.68,0,0,0-.93,1,5.12,5.12,0,0,0-.54,1.55,10.92,10.92,0,0,0-.18,2.09v2.32a7.64,7.64,0,0,0,.71,3.73,2.42,2.42,0,0,0,2.25,1.21,2.87,2.87,0,0,0,2-.69,3.16,3.16,0,0,0,.84-2.22Z"/>
        <path class="cls-2" d="M477.37,35.11a3.65,3.65,0,0,1-.2-.54c-.05-.2-.1-.41-.14-.64a4.28,4.28,0,0,1-1.4,1,4.93,4.93,0,0,1-.94.31,5.49,5.49,0,0,1-1.11.11,5.65,5.65,0,0,1-1.79-.28,4.25,4.25,0,0,1-1.4-.79,3.45,3.45,0,0,1-.91-1.2,3.49,3.49,0,0,1-.33-1.52,3.61,3.61,0,0,1,1.49-3.1,7.52,7.52,0,0,1,4.46-1.09h1.82v-.75a1.85,1.85,0,0,0-.6-1.45,2.48,2.48,0,0,0-1.72-.53,2.12,2.12,0,0,0-1.46.42,1.52,1.52,0,0,0-.45,1.15h-3.26a3.45,3.45,0,0,1,.36-1.54,3.7,3.7,0,0,1,1-1.28,5.49,5.49,0,0,1,1.67-.87,7.5,7.5,0,0,1,2.27-.32,7.69,7.69,0,0,1,2.14.28,5.39,5.39,0,0,1,1.72.83,3.84,3.84,0,0,1,1.13,1.39,4.29,4.29,0,0,1,.41,1.94v5.44a9.75,9.75,0,0,0,.13,1.69,4.24,4.24,0,0,0,.38,1.14v.2Zm-3.1-2.28a3.28,3.28,0,0,0,.91-.12,3.76,3.76,0,0,0,.76-.3,2.72,2.72,0,0,0,.59-.43,2.47,2.47,0,0,0,.39-.49V29.31h-1.67a4.89,4.89,0,0,0-1.3.15,2.48,2.48,0,0,0-.88.41,1.69,1.69,0,0,0-.5.63,2,2,0,0,0-.17.8,1.41,1.41,0,0,0,.47,1.09A2,2,0,0,0,474.27,32.83Z"/>
        <path class="cls-2" d="M484.53,17.11h7.09V32.46h3.64v2.65H484.53V32.46h3.8V19.77h-3.8Z"/>
        <path class="cls-2" d="M498.94,17.11H506V32.46h3.63v2.65H498.94V32.46h3.79V19.77h-3.79Z"/>
        <path class="cls-2" d="M513.53,22.43h6.9v10h3.43v2.65H513.53V32.46h3.61V25.09h-3.61Zm3.37-3.24a1.82,1.82,0,0,1,.14-.7,1.51,1.51,0,0,1,.38-.55,1.83,1.83,0,0,1,.59-.36,2.28,2.28,0,0,1,.76-.13,1.94,1.94,0,0,1,1.38.49,1.79,1.79,0,0,1,0,2.5,1.93,1.93,0,0,1-1.38.48,2.06,2.06,0,0,1-.76-.13,1.65,1.65,0,0,1-.59-.35,1.55,1.55,0,0,1-.38-.56A1.74,1.74,0,0,1,516.9,19.19Z"/>
        <path class="cls-2" d="M526.61,28.66a8,8,0,0,1,.4-2.56,6,6,0,0,1,1.17-2.05,5.44,5.44,0,0,1,1.87-1.36,6.83,6.83,0,0,1,5.08,0A5.42,5.42,0,0,1,537,24.05a5.82,5.82,0,0,1,1.16,2.05,7.77,7.77,0,0,1,.4,2.56v.24a7.83,7.83,0,0,1-.4,2.57A5.82,5.82,0,0,1,537,33.52a5.2,5.2,0,0,1-1.87,1.35,6.83,6.83,0,0,1-5.08,0,5.19,5.19,0,0,1-1.89-1.35A6,6,0,0,1,527,31.47a8.1,8.1,0,0,1-.4-2.57Zm3.26.24a7.2,7.2,0,0,0,.15,1.5,4,4,0,0,0,.49,1.22,2.44,2.44,0,0,0,.84.82,2.5,2.5,0,0,0,1.26.31,2.45,2.45,0,0,0,1.24-.31,2.41,2.41,0,0,0,.83-.82,3.8,3.8,0,0,0,.48-1.22,7.2,7.2,0,0,0,.15-1.5v-.24a6.91,6.91,0,0,0-.15-1.47,3.8,3.8,0,0,0-.48-1.22,2.36,2.36,0,0,0-.83-.83,2.5,2.5,0,0,0-1.26-.3,2.42,2.42,0,0,0-1.24.3,2.38,2.38,0,0,0-.84.83,4,4,0,0,0-.49,1.22,6.91,6.91,0,0,0-.15,1.47Z"/>
        <path class="cls-2" d="M552.85,28.89a9.57,9.57,0,0,1-.32,2.57,6,6,0,0,1-.95,2A4.49,4.49,0,0,1,550,34.86a4.57,4.57,0,0,1-2.12.49,4.41,4.41,0,0,1-1.8-.35,4.21,4.21,0,0,1-1.34-1v6h-3.26V22.43h3l.12,1.25A4,4,0,0,1,546,22.59a4.18,4.18,0,0,1,1.86-.39,4.71,4.71,0,0,1,2.14.46A4.56,4.56,0,0,1,551.58,24a6,6,0,0,1,.95,2,9.87,9.87,0,0,1,.32,2.63Zm-3.25-.25a7.1,7.1,0,0,0-.15-1.49,3.86,3.86,0,0,0-.46-1.21,2.36,2.36,0,0,0-.8-.8,2.25,2.25,0,0,0-1.17-.29,2.66,2.66,0,0,0-1.4.33,2.22,2.22,0,0,0-.85.94v5.3a2.39,2.39,0,0,0,.85,1,2.51,2.51,0,0,0,1.42.35,2.23,2.23,0,0,0,1.18-.3,2.33,2.33,0,0,0,.79-.83,4,4,0,0,0,.44-1.23,7,7,0,0,0,.15-1.48Z"/>
        <path class="cls-2" d="M562,35.35a7,7,0,0,1-2.66-.48,6.27,6.27,0,0,1-2.05-1.31A5.76,5.76,0,0,1,556,31.62a6.22,6.22,0,0,1-.47-2.4v-.47A7.48,7.48,0,0,1,556,26.1,6.13,6.13,0,0,1,557.26,24a5.74,5.74,0,0,1,1.94-1.35,6.19,6.19,0,0,1,2.45-.48,6.3,6.3,0,0,1,2.45.45,5,5,0,0,1,1.81,1.27,5.37,5.37,0,0,1,1.13,2,7.93,7.93,0,0,1,.39,2.55v1.38h-8.6a3.55,3.55,0,0,0,.38,1.18A3.15,3.15,0,0,0,561,32.52a3.66,3.66,0,0,0,1.26.21,5.09,5.09,0,0,0,.95-.09,4.13,4.13,0,0,0,1.72-.73,3,3,0,0,0,.65-.63L567.17,33a4.41,4.41,0,0,1-.79.85,5.17,5.17,0,0,1-1.15.74,7.35,7.35,0,0,1-3.21.72Zm-.39-10.51a2.56,2.56,0,0,0-1,.19,2.32,2.32,0,0,0-.8.56,3.33,3.33,0,0,0-.58.86,4.67,4.67,0,0,0-.35,1.13h5.34v-.26a2.84,2.84,0,0,0-.2-1,2.09,2.09,0,0,0-.5-.79,2.33,2.33,0,0,0-.8-.53A2.92,2.92,0,0,0,561.63,24.84Z"/>
        <path class="cls-2" d="M586.7,22.43l.09,1.54a3.22,3.22,0,0,1,1-1.3,2.6,2.6,0,0,1,1.56-.47,1.91,1.91,0,0,1,2,1.35,2.74,2.74,0,0,1,.95-1,2.63,2.63,0,0,1,1.4-.36,2.77,2.77,0,0,1,1.08.21,2.22,2.22,0,0,1,.86.67,3.36,3.36,0,0,1,.58,1.2,7,7,0,0,1,.2,1.79v9h-3V26.05a1.91,1.91,0,0,0-.08-.59,1,1,0,0,0-.2-.37.8.8,0,0,0-.3-.19,1.34,1.34,0,0,0-.35,0A1,1,0,0,0,592,25a.93.93,0,0,0-.36.42v9.68h-2.88V26a1.94,1.94,0,0,0-.07-.59.86.86,0,0,0-.19-.37.79.79,0,0,0-.29-.18,1.29,1.29,0,0,0-.35,0,.84.84,0,0,0-.6.21,1.51,1.51,0,0,0-.36.56v9.49h-3V22.43Z"/>
        <path class="cls-2" d="M599.94,22.43h6.9v10h3.43v2.65H599.94V32.46h3.61V25.09h-3.61Zm3.37-3.24a1.82,1.82,0,0,1,.14-.7,1.64,1.64,0,0,1,.38-.55,1.83,1.83,0,0,1,.59-.36,2.34,2.34,0,0,1,.77-.13,1.94,1.94,0,0,1,1.38.49,1.79,1.79,0,0,1,0,2.5,1.93,1.93,0,0,1-1.38.48,2.11,2.11,0,0,1-.77-.13,1.65,1.65,0,0,1-.59-.35,1.68,1.68,0,0,1-.38-.56A1.74,1.74,0,0,1,603.31,19.19Z"/>
        <path class="cls-2" d="M616.43,22.43l.2,1.76a4.82,4.82,0,0,1,1.65-1.47,4.48,4.48,0,0,1,2.16-.52,5.14,5.14,0,0,1,1.75.28,3.52,3.52,0,0,1,1.38.9,4,4,0,0,1,.9,1.58,7.33,7.33,0,0,1,.32,2.35v7.8h-3.25V27.36a3.9,3.9,0,0,0-.17-1.24,1.86,1.86,0,0,0-.49-.77,1.67,1.67,0,0,0-.76-.39,3.91,3.91,0,0,0-1-.11,2.87,2.87,0,0,0-1.42.33,2.7,2.7,0,0,0-1,.92v9h-3.27V22.43Z"/>
        <path class="cls-2" d="M628.74,22.43h6.91v10h3.43v2.65H628.74V32.46h3.61V25.09h-3.61Zm3.38-3.24a1.82,1.82,0,0,1,.13-.7,1.64,1.64,0,0,1,.38-.55,2,2,0,0,1,.6-.36,2.28,2.28,0,0,1,.76-.13,1.94,1.94,0,0,1,1.38.49,1.79,1.79,0,0,1,0,2.5,1.93,1.93,0,0,1-1.38.48,2.06,2.06,0,0,1-.76-.13,1.79,1.79,0,0,1-.6-.35,1.68,1.68,0,0,1-.38-.56A1.73,1.73,0,0,1,632.12,19.19Z"/>
      </g>
    </g>
  </g>
</svg>
