<svg xmlns="http://www.w3.org/2000/svg" viewBox="0 0 389.97 285.69">
  <defs>
    <style>
      .cls-1 {
        fill: #3fc863;
      }

      .cls-2 {
        fill: #f7c425;
      }

      .cls-3 {
        fill: #fff;
      }
    </style>
  </defs>
  <title>Asset 212</title>
  <g id="Layer_2" data-name="Layer 2">
    <g id="Layer_1-2" data-name="Layer 1">
      <g>
        <path class="cls-1" d="M390,102.76l-1-1-3,1.79-.73,2.6-2.56.74-2.6,5.83-1.48,1.48-.06-.13-2.28-2.28,1.54-1.77,2.37-.68,1.58-3.38,2.55-.74.68-2.43,3.15-1.88-1.19-1.19-10.27,6.58L373,109.9l-1.57-.61-18.9,13.21-6.91,6.92L344,138.75l-4.39,4.39,1.43,1.43a300.1,300.1,0,0,0-37.77,37.62q-17.87,21.66-24.59,40.28A229.59,229.59,0,0,0,249,220V11.07A11.07,11.07,0,0,0,237.93,0H11.07A11.07,11.07,0,0,0,0,11.07V237.92A11.07,11.07,0,0,0,11.07,249H237.93A11.07,11.07,0,0,0,249,237.92V224a228.82,228.82,0,0,1,28.37,2.33q-5.7,18.81.53,34.1c8.73,21.33,22.07,25,29.25,25.23h.92a29.46,29.46,0,0,0,25.59-16,22.08,22.08,0,0,0-2.74-24.65c-8.54-10.48-24.72-17.85-48.13-21.92,12.71-34.12,51.29-67.62,61.07-75.73l2.4,2.4,4-4,9.93-1.74,6.92-6.91,13-19.09-.52-1.26,3.75-3.75ZM58,121.11a6.92,6.92,0,1,1,6.91-6.92A6.92,6.92,0,0,1,58,121.11ZM163.64,164.7a77.31,77.31,0,0,1-7.62,3.67l3.44,10.41a8.89,8.89,0,0,1-5.64,11.2l-1.75.57a8.88,8.88,0,0,1-11.19-5.63l-3.69-11.17a81.45,81.45,0,0,1-52.08-9.05,2.5,2.5,0,1,1,2.41-4.38,76.57,76.57,0,0,0,73.7,0,2.5,2.5,0,1,1,2.42,4.38ZM191,121.11a6.92,6.92,0,1,1,6.92-6.92A6.92,6.92,0,0,1,191,121.11Zm136.8,126.48a18.06,18.06,0,0,1,2.26,20.34,25.26,25.26,0,0,1-22.79,13.75c-10.72-.4-19.85-8.47-25.69-22.74-4.12-10.07-3.56-21-.13-31.94C298.92,230,318.27,235.88,327.81,247.59Z"/>
        <path class="cls-2" d="M64.9,114.19A6.92,6.92,0,1,1,58,107.27,6.91,6.91,0,0,1,64.9,114.19Z"/>
        <path class="cls-2" d="M163.64,164.7a77.31,77.31,0,0,1-7.62,3.67l3.44,10.41a8.89,8.89,0,0,1-5.64,11.2l-1.75.57a8.88,8.88,0,0,1-11.19-5.63l-3.69-11.17a81.45,81.45,0,0,1-52.08-9.05,2.5,2.5,0,1,1,2.41-4.38,76.57,76.57,0,0,0,73.7,0,2.5,2.5,0,1,1,2.42,4.38Z"/>
        <circle class="cls-2" cx="191.01" cy="114.19" r="6.92"/>
        <g>
          <g>
            <path class="cls-3" d="M64.9,114.19A6.92,6.92,0,1,1,58,107.27,6.91,6.91,0,0,1,64.9,114.19Z"/>
            <circle class="cls-3" cx="191.01" cy="114.19" r="6.92"/>
          </g>
          <path class="cls-3" d="M163.64,164.7a77.31,77.31,0,0,1-7.62,3.67l3.44,10.41a8.89,8.89,0,0,1-5.64,11.2l-1.75.57a8.88,8.88,0,0,1-11.19-5.63l-3.69-11.17a81.45,81.45,0,0,1-52.08-9.05,2.5,2.5,0,1,1,2.41-4.38,76.57,76.57,0,0,0,73.7,0,2.5,2.5,0,1,1,2.42,4.38Z"/>
        </g>
      </g>
    </g>
  </g>
</svg>
